<svg width="54" height="22" viewBox="0 0 54 22" fill="none" xmlns="http://www.w3.org/2000/svg">
<path d="M29.5128 10.737L29.4045 10.1926H29.3504C29.2571 10.3099 29.1278 10.4182 28.9684 10.5204C28.6195 10.737 28.2195 10.8483 27.7714 10.8483C27.1609 10.8483 26.6737 10.6858 26.3068 10.358C25.9398 10.0302 25.7564 9.63322 25.7564 9.16104C25.7564 8.59562 25.9519 8.1445 26.3458 7.81066C26.7368 7.47683 27.3052 7.31141 28.0451 7.31141H29.2962V7.20314C29.2962 6.89036 29.206 6.64074 29.0286 6.45126C28.8511 6.26179 28.6135 6.16855 28.3158 6.16855C28.0331 6.16855 27.8045 6.24073 27.6361 6.3851C27.4646 6.52946 27.3654 6.69487 27.3353 6.87532H25.9759C26.0421 6.37607 26.2737 5.94901 26.6737 5.60314C27.0737 5.25427 27.621 5.07983 28.3188 5.07983C29.0165 5.07983 29.5789 5.28434 30.012 5.69036C30.4451 6.09637 30.6586 6.60164 30.6586 7.20314V10.74H29.5128V10.737ZM29.2962 8.5054V8.34299H28.1534C27.4646 8.34299 27.1188 8.57758 27.1188 9.04976C27.1188 9.2663 27.194 9.44073 27.3474 9.56705C27.5007 9.69337 27.7143 9.75652 27.988 9.75652C28.403 9.75652 28.7218 9.64525 28.9504 9.4257C29.1819 9.20314 29.2962 8.89637 29.2962 8.5054Z" fill="#191919"/>
<path d="M31.5278 10.7368V3.11572H32.8872V5.78339H32.9413C33.0436 5.65407 33.1699 5.53678 33.3233 5.43452C33.6782 5.19392 34.0782 5.07662 34.5203 5.07662C35.2451 5.07662 35.8526 5.3443 36.3428 5.87663C36.8331 6.40896 37.0767 7.10369 37.0767 7.96084C37.0767 8.81798 36.8331 9.51272 36.3428 10.045C35.8526 10.5774 35.2451 10.845 34.5203 10.845C34.0421 10.845 33.6271 10.7278 33.2782 10.4962C33.1248 10.3939 32.9955 10.2736 32.8872 10.1383H32.8331L32.7248 10.7368H31.5278ZM33.2782 9.16384C33.5398 9.44956 33.8797 9.59392 34.3007 9.59392C34.7218 9.59392 35.0616 9.44956 35.3233 9.16384C35.5849 8.87813 35.7143 8.47512 35.7143 7.96084C35.7143 7.44655 35.5849 7.04354 35.3233 6.75783C35.0616 6.47211 34.7218 6.32775 34.3007 6.32775C33.8797 6.32775 33.5398 6.47211 33.2782 6.75783C33.0165 7.04354 32.8872 7.44655 32.8872 7.96084C32.8872 8.47512 33.0195 8.87813 33.2782 9.16384Z" fill="#191919"/>
<path d="M37.7323 10.7368V3.11572H39.0917V5.78339H39.1459C39.2481 5.65407 39.3744 5.53678 39.5278 5.43452C39.8827 5.19392 40.2827 5.07662 40.7248 5.07662C41.4496 5.07662 42.0571 5.3443 42.5474 5.87663C43.0376 6.40896 43.2812 7.10369 43.2812 7.96084C43.2812 8.81798 43.0376 9.51272 42.5474 10.045C42.0571 10.5774 41.4496 10.845 40.7248 10.845C40.2466 10.845 39.8316 10.7278 39.4827 10.4962C39.3293 10.3939 39.2 10.2736 39.0917 10.1383H39.0376L38.9293 10.7368H37.7323ZM39.4827 9.16384C39.7444 9.44956 40.0842 9.59392 40.5053 9.59392C40.9263 9.59392 41.2662 9.44956 41.5278 9.16384C41.7895 8.87813 41.9188 8.47512 41.9188 7.96084C41.9188 7.44655 41.7895 7.04354 41.5278 6.75783C41.2662 6.47211 40.9263 6.32775 40.5053 6.32775C40.0842 6.32775 39.7444 6.47211 39.4827 6.75783C39.221 7.04354 39.0917 7.44655 39.0917 7.96084C39.0917 8.47512 39.2241 8.87813 39.4827 9.16384Z" fill="#191919"/>
<path d="M47.3654 10.737L47.2571 10.1926H47.203C47.1098 10.3099 46.9804 10.4182 46.821 10.5204C46.4722 10.737 46.0722 10.8483 45.624 10.8483C45.0135 10.8483 44.5263 10.6858 44.1594 10.358C43.7925 10.0302 43.609 9.63322 43.609 9.16104C43.609 8.59562 43.8045 8.1445 44.1985 7.81066C44.5895 7.47683 45.1579 7.31141 45.8977 7.31141H47.1489V7.20314C47.1489 6.89036 47.0586 6.64074 46.8812 6.45126C46.7037 6.26179 46.4662 6.16855 46.1684 6.16855C45.8857 6.16855 45.6571 6.24073 45.4887 6.3851C45.3173 6.52946 45.218 6.69487 45.188 6.87532H43.8286C43.8947 6.37607 44.1263 5.94901 44.5263 5.60314C44.9263 5.25427 45.4737 5.07983 46.1714 5.07983C46.8692 5.07983 47.4316 5.28434 47.8647 5.69036C48.2977 6.09637 48.5113 6.60164 48.5113 7.20314V10.74H47.3654V10.737ZM47.1489 8.5054V8.34299H46.006C45.3173 8.34299 44.9714 8.57758 44.9714 9.04976C44.9714 9.2663 45.0466 9.44073 45.2 9.56705C45.3534 9.69337 45.5669 9.75652 45.8406 9.75652C46.2556 9.75652 46.5744 9.64525 46.803 9.4257C47.0346 9.20314 47.1489 8.89637 47.1489 8.5054Z" fill="#191919"/>
<path d="M26.0301 18.773V13.2211H27.2812L27.3895 13.7655H27.4436C27.5308 13.6482 27.6391 13.5399 27.7714 13.4377C28.0601 13.2211 28.388 13.1099 28.7519 13.1099C29.188 13.1099 29.5759 13.2362 29.9158 13.4918C30.0692 13.6211 30.1864 13.7505 30.2737 13.8738H30.3278C30.421 13.7505 30.5534 13.6242 30.7188 13.4918C31.0737 13.2392 31.4887 13.1099 31.9609 13.1099C32.5353 13.1099 33.0225 13.3264 33.4255 13.7565C33.8286 14.1866 34.0301 14.7159 34.0301 15.3414V18.77H32.6707V15.4527C32.6707 15.1038 32.5864 14.8362 32.421 14.6467C32.2556 14.4572 32.0301 14.364 31.7473 14.364C31.4436 14.364 31.194 14.4663 31.0015 14.6738C30.809 14.8813 30.7128 15.1399 30.7128 15.4527V18.773H29.3534V15.4527C29.3534 15.1038 29.2692 14.8362 29.1037 14.6467C28.9353 14.4572 28.7128 14.364 28.4301 14.364C28.1263 14.364 27.8767 14.4663 27.6842 14.6738C27.4917 14.8813 27.3955 15.1399 27.3955 15.4527V18.773H26.0301Z" fill="#191919"/>
<path d="M38.5474 17.1398H39.9639C39.9278 17.2781 39.8556 17.4315 39.7504 17.6029C39.6451 17.7744 39.4977 17.9608 39.3052 18.1683C39.1128 18.3759 38.8511 18.5443 38.5173 18.6796C38.1834 18.815 37.8135 18.8811 37.4075 18.8811C36.5864 18.8811 35.9098 18.6104 35.3774 18.0691C34.8451 17.5277 34.5774 16.836 34.5774 15.9939C34.5774 15.1518 34.8451 14.4601 35.3774 13.9187C35.9098 13.3774 36.5864 13.1067 37.4075 13.1067C38.1684 13.1067 38.812 13.3744 39.3383 13.9067C39.8646 14.439 40.1263 15.0977 40.1263 15.8826C40.1263 15.9488 40.1143 16.0781 40.0932 16.2736L40.0722 16.427H35.9368C35.994 16.818 36.1594 17.1338 36.4271 17.3744C36.6947 17.615 37.0225 17.7323 37.4075 17.7323C37.6962 17.7323 37.9428 17.6691 38.1473 17.5428C38.3489 17.4195 38.4842 17.2841 38.5474 17.1398ZM35.9368 15.5067H38.7669C38.7007 15.1368 38.5504 14.836 38.3158 14.6044C38.0812 14.3729 37.7774 14.2556 37.4075 14.2556C37.0165 14.2556 36.6947 14.3698 36.4451 14.5984C36.1925 14.824 36.024 15.1277 35.9368 15.5067Z" fill="#191919"/>
<path d="M44.806 18.7729L44.6977 18.1744H44.6436C44.5353 18.3127 44.403 18.433 44.2526 18.5323C43.9038 18.7639 43.4917 18.8811 43.0105 18.8811C42.2857 18.8811 41.6782 18.6135 41.188 18.0811C40.6977 17.5488 40.4541 16.8541 40.4541 15.9969C40.4541 15.1398 40.6977 14.4451 41.188 13.9127C41.6782 13.3804 42.2857 13.1127 43.0105 13.1127C43.4466 13.1127 43.8436 13.233 44.2075 13.4706C44.3609 13.5729 44.4872 13.6872 44.5895 13.8195H44.6436V11.8135H46.003V18.7729H44.806ZM42.2045 17.1999C42.4662 17.4857 42.806 17.63 43.2271 17.63C43.6481 17.63 43.988 17.4857 44.2496 17.1999C44.5113 16.9142 44.6406 16.5112 44.6406 15.9969C44.6406 15.4826 44.5113 15.0796 44.2496 14.7939C43.988 14.5082 43.6481 14.3639 43.2271 14.3639C42.806 14.3639 42.4662 14.5082 42.2045 14.7939C41.9429 15.0796 41.8135 15.4826 41.8135 15.9969C41.8135 16.5112 41.9459 16.9112 42.2045 17.1999Z" fill="#191919"/>
<path d="M46.9293 18.7728V13.2209H48.2887V18.7728H46.9293Z" fill="#191919"/>
<path d="M52.6436 18.7729L52.5353 18.2285H52.4812C52.388 18.3458 52.2586 18.4541 52.0992 18.5563C51.7504 18.7729 51.3504 18.8841 50.9022 18.8841C50.2917 18.8841 49.8045 18.7217 49.4376 18.3939C49.0707 18.0661 48.8872 17.6691 48.8872 17.1969C48.8872 16.6315 49.0827 16.1804 49.4767 15.8465C49.8677 15.5127 50.4361 15.3473 51.1759 15.3473H52.4271V15.239C52.4271 14.9262 52.3368 14.6766 52.1594 14.4872C51.9819 14.2977 51.7443 14.2044 51.4466 14.2044C51.1639 14.2044 50.9353 14.2766 50.7669 14.421C50.5955 14.5653 50.4962 14.7308 50.4662 14.9112H49.1067C49.1729 14.412 49.4045 13.9849 49.8045 13.639C50.2045 13.2902 50.7519 13.1157 51.4496 13.1157C52.1474 13.1157 52.7098 13.3202 53.1428 13.7262C53.5759 14.1323 53.7895 14.6375 53.7895 15.239V18.7759H52.6436V18.7729ZM52.4271 16.5413V16.3789H51.2842C50.5955 16.3789 50.2496 16.6135 50.2496 17.0856C50.2496 17.3022 50.3248 17.4766 50.4782 17.6029C50.6316 17.7293 50.8451 17.7924 51.1188 17.7924C51.5338 17.7924 51.8526 17.6811 52.0812 17.4616C52.3128 17.239 52.4271 16.9323 52.4271 16.5413Z" fill="#191919"/>
<path d="M7.74737 16.3369C7.19399 16.3369 6.74287 16.5234 6.39099 16.8993C6.04211 17.2753 5.86768 17.7474 5.86768 18.3159V22.0001H9.43159V18.3159C9.43159 17.6843 9.2782 17.1941 8.97745 16.8512C8.67369 16.5083 8.26166 16.3369 7.74737 16.3369Z" fill="#007C99"/>
<path d="M4.42405 14.7519C4.70075 14.9895 4.92029 15.2211 5.07668 15.4436H5.17593C5.34736 15.2211 5.58496 14.9895 5.88872 14.7519C6.53533 14.2917 7.28721 14.0601 8.14436 14.0601C9.18797 14.0601 10.0752 14.4541 10.806 15.2391C11.5398 16.0241 11.9038 16.9835 11.9038 18.1173V22H21.997L14.4271 0H7.56992L2.7218 14.0842C3.34436 14.1534 3.91278 14.3729 4.42405 14.7519Z" fill="#007C99"/>
<path d="M3.39549 18.3158C3.39549 17.6842 3.24511 17.194 2.94135 16.8511C2.68271 16.5594 2.35188 16.394 1.94285 16.3489L0 22H3.3985V18.3158H3.39549Z" fill="#007C99"/>
</svg>
