<svg width="57" height="23" viewBox="0 0 57 23" fill="none" xmlns="http://www.w3.org/2000/svg">
<path d="M29.8484 10.3447L29.7389 9.7942H29.6841C29.5898 9.91283 29.459 10.0223 29.2978 10.1257C28.945 10.3447 28.5404 10.4573 28.0872 10.4573C27.4697 10.4573 26.977 10.293 26.6059 9.96149C26.2348 9.62994 26.0493 9.22844 26.0493 8.7509C26.0493 8.17905 26.247 7.72279 26.6454 7.38516C27.0409 7.04753 27.6157 6.88024 28.364 6.88024H29.6294V6.77074C29.6294 6.4544 29.5381 6.20194 29.3586 6.01031C29.1792 5.81868 28.9389 5.72439 28.6378 5.72439C28.3518 5.72439 28.1207 5.79739 27.9503 5.94339C27.7769 6.08939 27.6766 6.25669 27.6462 6.43919H26.2713C26.3382 5.93427 26.5724 5.50234 26.977 5.15255C27.3815 4.79971 27.9351 4.62329 28.6408 4.62329C29.3465 4.62329 29.9153 4.83013 30.3533 5.24076C30.7913 5.65139 31.0072 6.1624 31.0072 6.77074V10.3478H29.8484V10.3447ZM29.6294 8.0878V7.92355H28.4735C27.7769 7.92355 27.4271 8.1608 27.4271 8.63835C27.4271 8.85736 27.5032 9.03378 27.6583 9.16153C27.8135 9.28928 28.0294 9.35315 28.3062 9.35315C28.726 9.35315 29.0484 9.24061 29.2796 9.01857C29.5138 8.79348 29.6294 8.48323 29.6294 8.0878Z" fill="#191919"/>
<path d="M31.8863 10.3449V2.63721H33.2611V5.3352H33.3159C33.4193 5.20441 33.5471 5.08578 33.7022 4.98236C34.0611 4.73903 34.4657 4.6204 34.9128 4.6204C35.6458 4.6204 36.2603 4.89111 36.7561 5.4295C37.2519 5.96788 37.4983 6.67051 37.4983 7.5374C37.4983 8.40429 37.2519 9.10693 36.7561 9.64531C36.2603 10.1837 35.6458 10.4544 34.9128 10.4544C34.4292 10.4544 34.0094 10.3358 33.6566 10.1016C33.5014 9.99815 33.3706 9.87648 33.2611 9.7396H33.2064L33.0969 10.3449H31.8863ZM33.6566 8.75408C33.9212 9.04305 34.2649 9.18905 34.6907 9.18905C35.1166 9.18905 35.4603 9.04305 35.7249 8.75408C35.9896 8.46512 36.1204 8.05753 36.1204 7.5374C36.1204 7.01727 35.9896 6.60968 35.7249 6.32071C35.4603 6.03175 35.1166 5.88575 34.6907 5.88575C34.2649 5.88575 33.9212 6.03175 33.6566 6.32071C33.3919 6.60968 33.2611 7.01727 33.2611 7.5374C33.2611 8.05753 33.395 8.46208 33.6566 8.75408Z" fill="#191919"/>
<path d="M38.1613 10.3449V2.63721H39.5362V5.3352H39.591C39.6944 5.20441 39.8221 5.08578 39.9772 4.98236C40.3362 4.73903 40.7407 4.6204 41.1879 4.6204C41.9209 4.6204 42.5353 4.89111 43.0311 5.4295C43.5269 5.96788 43.7733 6.67051 43.7733 7.5374C43.7733 8.40429 43.5269 9.10693 43.0311 9.64531C42.5353 10.1837 41.9209 10.4544 41.1879 10.4544C40.7042 10.4544 40.2845 10.3358 39.9316 10.1016C39.7765 9.99815 39.6457 9.87648 39.5362 9.7396H39.4814L39.372 10.3449H38.1613ZM39.9347 8.75408C40.1993 9.04305 40.543 9.18905 40.9688 9.18905C41.3947 9.18905 41.7384 9.04305 42.003 8.75408C42.2677 8.46512 42.3984 8.05753 42.3984 7.5374C42.3984 7.01727 42.2677 6.60968 42.003 6.32071C41.7384 6.03175 41.3947 5.88575 40.9688 5.88575C40.543 5.88575 40.1993 6.03175 39.9347 6.32071C39.67 6.60968 39.5392 7.01727 39.5392 7.5374C39.5362 8.05753 39.67 8.46208 39.9347 8.75408Z" fill="#191919"/>
<path d="M47.9039 10.3447L47.7944 9.7942H47.7397C47.6454 9.91283 47.5146 10.0223 47.3534 10.1257C47.0005 10.3447 46.596 10.4573 46.1428 10.4573C45.5253 10.4573 45.0325 10.293 44.6615 9.96149C44.2904 9.62994 44.1048 9.22844 44.1048 8.7509C44.1048 8.17905 44.3025 7.72279 44.701 7.38516C45.0964 7.04753 45.6713 6.88024 46.4196 6.88024H47.6849V6.77074C47.6849 6.4544 47.5937 6.20194 47.4142 6.01031C47.2347 5.81868 46.9944 5.72439 46.6933 5.72439C46.4074 5.72439 46.1762 5.79739 46.0059 5.94339C45.8325 6.08939 45.7321 6.25669 45.7017 6.43919H44.3269C44.3938 5.93427 44.628 5.50234 45.0325 5.15255C45.4371 4.79971 45.9907 4.62329 46.6964 4.62329C47.402 4.62329 47.9708 4.83013 48.4088 5.24076C48.8469 5.65139 49.0628 6.1624 49.0628 6.77074V10.3478H47.9039V10.3447ZM47.6849 8.0878V7.92355H46.5291C45.8325 7.92355 45.4827 8.1608 45.4827 8.63835C45.4827 8.85736 45.5588 9.03378 45.7139 9.16153C45.869 9.28928 46.085 9.35315 46.3618 9.35315C46.7815 9.35315 47.104 9.24061 47.3351 9.01857C47.5693 8.79348 47.6849 8.48323 47.6849 8.0878Z" fill="#191919"/>
<path d="M29.8909 17.2496H31.2262C31.1775 17.4929 31.0954 17.7272 30.9859 17.9553C30.8764 18.1834 30.7243 18.4085 30.5327 18.6336C30.3411 18.8587 30.0825 19.0381 29.7571 19.178C29.4346 19.318 29.0696 19.3849 28.662 19.3849C27.859 19.3849 27.1929 19.1202 26.6728 18.591C26.1496 18.0617 25.888 17.3834 25.888 16.5561C25.888 15.7318 26.1496 15.0535 26.6728 14.5212C27.1959 13.9919 27.859 13.7273 28.662 13.7273C29.0666 13.7273 29.4316 13.7973 29.7571 13.9341C30.0795 14.074 30.338 14.2535 30.5327 14.4725C30.7243 14.6946 30.8764 14.9136 30.9859 15.1356C31.0954 15.3577 31.1775 15.5797 31.2262 15.8078H29.8909C29.678 15.239 29.2673 14.9531 28.662 14.9531C28.2575 14.9531 27.9138 15.1021 27.637 15.4002C27.3602 15.6983 27.2203 16.0846 27.2203 16.553C27.2203 17.0215 27.3602 17.4078 27.637 17.7059C27.9138 18.0039 28.2575 18.153 28.662 18.153C29.2917 18.156 29.6993 17.8549 29.8909 17.2496Z" fill="#191919"/>
<path d="M32.2786 14.5212C32.8018 13.9919 33.4649 13.7273 34.2679 13.7273C35.0709 13.7273 35.7371 13.9919 36.2602 14.5212C36.7834 15.0504 37.045 15.7287 37.045 16.5561C37.045 17.3804 36.7834 18.0587 36.2602 18.591C35.7371 19.1202 35.074 19.3849 34.2679 19.3849C33.4649 19.3849 32.7988 19.1202 32.2786 18.591C31.7555 18.0617 31.4939 17.3834 31.4939 16.5561C31.4939 15.7318 31.7555 15.0535 32.2786 14.5212ZM33.2428 17.7089C33.5196 18.007 33.8634 18.156 34.2679 18.156C34.6725 18.156 35.0162 18.007 35.293 17.7089C35.5698 17.4108 35.7097 17.0245 35.7097 16.5561C35.7097 16.0877 35.5698 15.7014 35.293 15.4033C35.0162 15.1052 34.6725 14.9561 34.2679 14.9561C33.8634 14.9561 33.5196 15.1052 33.2428 15.4033C32.9661 15.7014 32.8261 16.0877 32.8261 16.5561C32.8292 17.0275 32.9661 17.4108 33.2428 17.7089Z" fill="#191919"/>
<path d="M41.6349 19.2784L41.5285 18.6914H41.4737C41.3673 18.8282 41.2395 18.9438 41.0905 19.0442C40.7498 19.2723 40.3422 19.3849 39.8738 19.3849C39.162 19.3849 38.5659 19.1233 38.0853 18.6001C37.6047 18.0769 37.3644 17.3956 37.3644 16.5561C37.3644 15.7166 37.6047 15.0352 38.0853 14.5121C38.5659 13.9889 39.162 13.7273 39.8738 13.7273C40.2996 13.7273 40.692 13.8459 41.0479 14.0801C41.1969 14.1805 41.3216 14.2931 41.422 14.4208H41.4768V11.8049H42.8121V19.2784H41.6349ZM39.0829 17.7363C39.3384 18.0161 39.673 18.1591 40.0867 18.1591C40.5004 18.1591 40.835 18.0191 41.0905 17.7363C41.346 17.4564 41.4737 17.061 41.4737 16.5561C41.4737 16.0512 41.346 15.6588 41.0905 15.3759C40.835 15.0961 40.5004 14.9531 40.0867 14.9531C39.673 14.9531 39.3384 15.093 39.0829 15.3759C38.8274 15.6557 38.6997 16.0512 38.6997 16.5561C38.6997 17.061 38.8274 17.4534 39.0829 17.7363Z" fill="#191919"/>
<path d="M43.6638 12.979V11.6985H45.1055V12.979H43.6638ZM43.7155 19.2784V13.8338H45.0508V19.2784H43.7155Z" fill="#191919"/>
<path d="M45.9055 19.2784V13.8338H47.1343L47.2408 14.3661H47.2956C47.3807 14.2596 47.5024 14.1531 47.6575 14.0467C47.986 13.8338 48.3632 13.7273 48.789 13.7273C49.4095 13.7273 49.9175 13.9402 50.3221 14.363C50.7236 14.7858 50.9243 15.3394 50.9243 16.0238V19.2784H49.589V16.1303C49.589 15.7805 49.4795 15.4976 49.2635 15.2816C49.0476 15.0657 48.7647 14.9561 48.4149 14.9561C48.0651 14.9561 47.7822 15.0657 47.5663 15.2816C47.3503 15.4976 47.2408 15.7805 47.2408 16.1303V19.2784H45.9055Z" fill="#191919"/>
<path d="M51.6148 19.5461H53.0018C53.0292 19.6586 53.0779 19.7712 53.1417 19.8777C53.2056 19.9841 53.3273 20.0906 53.5098 20.194C53.6923 20.2974 53.9143 20.3491 54.1759 20.3491C54.5592 20.3491 54.8694 20.2396 55.1036 20.0176C55.3378 19.7955 55.4565 19.4974 55.4565 19.1203V18.372H55.4017C55.3165 18.4724 55.1949 18.5728 55.0398 18.6701C54.7477 18.8617 54.3706 18.9591 53.9082 18.9591C53.2026 18.9591 52.6186 18.7157 52.1532 18.229C51.6878 17.7424 51.4536 17.1127 51.4536 16.3462C51.4536 15.5767 51.6878 14.9501 52.1532 14.4634C52.6186 13.9767 53.2056 13.7334 53.9082 13.7334C54.3493 13.7334 54.7417 13.8399 55.0823 14.0528C55.2375 14.1532 55.3622 14.2596 55.4565 14.3722H55.5112L55.6177 13.8399H56.7918V19.1355C56.7918 19.8533 56.5545 20.4312 56.0831 20.8692C55.6086 21.3072 54.9759 21.5263 54.179 21.5263C53.7805 21.5263 53.4216 21.4685 53.1022 21.3559C52.7828 21.2403 52.5334 21.1035 52.3539 20.9392C52.1775 20.775 52.0285 20.5985 51.9098 20.4069C51.7912 20.2153 51.7152 20.048 51.6756 19.905C51.6361 19.756 51.6148 19.6374 51.6148 19.5461ZM55.0763 15.306C54.8207 15.0352 54.5044 14.9014 54.1272 14.9014C53.7501 14.9014 53.4337 15.0352 53.1782 15.306C52.9227 15.5767 52.795 15.9204 52.795 16.3401C52.795 16.7599 52.9227 17.1066 53.1782 17.3743C53.4337 17.645 53.7501 17.7789 54.1272 17.7789C54.5044 17.7789 54.8207 17.645 55.0763 17.3743C55.3318 17.1036 55.4595 16.7599 55.4595 16.3401C55.4595 15.9234 55.3318 15.5767 55.0763 15.306Z" fill="#191919"/>
<path d="M2.72235 14.8588C3.89645 13.6695 5.38385 13.0733 7.19062 13.0733C8.10009 13.0733 8.91832 13.2284 9.64529 13.5417C10.3723 13.852 10.9502 14.2565 11.3821 14.7523C11.814 15.2481 12.1517 15.7439 12.4011 16.2367C12.6475 16.7325 12.8269 17.2343 12.9395 17.7453H9.94642C9.46583 16.4678 8.54723 15.8291 7.19062 15.8291C6.28115 15.8291 5.51464 16.1637 4.89109 16.8359C4.26754 17.5051 3.95729 18.3689 3.95729 19.4244C3.95729 20.4798 4.26754 21.3406 4.89109 22.0129C4.97017 22.098 5.04926 22.1771 5.13443 22.2501H8.76623H9.23161C9.54187 21.9277 9.78216 21.5079 9.94946 20.9817H12.9425C12.8543 21.4137 12.7205 21.8365 12.544 22.2501H22.2532L14.5972 0H7.66209L2.60068 14.7128L2.43643 15.1933C2.52464 15.0778 2.61894 14.9652 2.72235 14.8588Z" fill="#1ABAA3"/>
<path d="M0.964222 19.4456L0 22.247H1.53606C1.16193 21.4166 0.967264 20.4858 0.964222 19.4456Z" fill="#1ABAA3"/>
</svg>
