<svg width="80" height="29" viewBox="0 0 80 29" fill="none" xmlns="http://www.w3.org/2000/svg">
<g clip-path="url(#clip0_45_124)">
<path d="M0.202026 20.5075V0.19873H3.45679V20.5075H0.202026Z" fill="#5B8A8D" stroke="#5B8A8D" stroke-width="0.7"/>
<path d="M16.4759 20.5071V12.6299C16.4759 11.5221 16.1629 10.599 15.537 9.86052C14.9111 9.12201 14.0974 8.75278 13.0333 8.75278C11.9693 8.75278 11.1556 9.12201 10.4671 9.86052C9.84117 10.599 9.46561 11.5221 9.46561 12.6299V20.5071H6.39862V6.16802H9.21525L9.40302 8.07581C9.77856 7.33732 10.3419 6.78344 11.093 6.47572C11.8441 6.10649 12.5952 5.9834 13.4715 5.9834C15.7874 5.9834 17.2896 6.96807 18.0407 8.87585C19.1047 6.96807 20.7947 6.04493 23.0481 6.04493C25.0509 6.04493 26.5531 6.59881 27.6172 7.76811C28.6812 8.93739 29.182 10.5375 29.182 12.6299V20.5687H26.1149V12.6299C26.1149 11.5221 25.8646 10.599 25.3014 9.86052C24.738 9.12201 23.9242 8.81432 22.9228 8.81432C21.8588 8.81432 20.9824 9.18355 20.3566 9.92205C19.7307 10.6606 19.3551 11.5837 19.3551 12.6914V20.5687H16.4759V20.5071Z" fill="#5B8A8D" stroke="#5B8A8D" stroke-width="0.7"/>
<path d="M43.5155 6.16829H46.4574V20.446H43.5782L43.4529 18.1074C43.0147 18.9689 42.3262 19.6459 41.3248 20.1382C40.3234 20.6306 39.3844 20.8151 38.4456 20.8151C36.2549 20.8151 34.5024 20.1997 33.0626 18.8458C31.6856 17.4919 30.9972 15.6457 30.9972 13.3071C30.9972 10.9685 31.6856 9.18384 33.1252 7.82993C34.5648 6.47601 36.3176 5.8606 38.5083 5.8606C39.5723 5.8606 40.5111 6.10676 41.4501 6.53755C42.3262 7.02989 43.0147 7.64531 43.5155 8.44535V6.16829ZM35.3159 9.92233C34.4398 10.7839 33.939 11.9532 33.939 13.3687C33.939 14.7841 34.3772 15.9534 35.3159 16.815C36.1923 17.6765 37.319 18.1074 38.6959 18.1074C39.5723 18.1074 40.3234 17.9227 41.0119 17.615C41.7004 17.2458 42.2012 16.815 42.5768 16.2611C42.9523 15.7072 43.2026 15.0918 43.3279 14.4149C43.5155 13.7379 43.5155 13.0609 43.3279 12.384C43.14 11.707 42.8897 11.0916 42.5768 10.5377C42.2636 9.98388 41.7004 9.55309 41.0119 9.18384C40.3234 8.81458 39.5723 8.69151 38.6959 8.69151C37.319 8.62996 36.1923 9.06075 35.3159 9.92233Z" fill="#5B8A8D" stroke="#5B8A8D" stroke-width="0.7"/>
<path d="M61.6046 4.81421L63.7953 6.47583L62.0428 8.5067C63.2319 9.86061 63.7953 11.3376 63.7953 12.9377C63.7953 14.2301 63.4824 15.3378 62.7939 16.3225C62.1679 17.3071 61.1665 17.9841 59.9145 18.4764C62.4808 19.338 63.7327 20.8766 63.7327 23.1535C63.7327 24.9997 62.9816 26.4152 61.4168 27.4616C59.8521 28.5077 58.0368 29 55.9713 29C53.5929 29 51.6525 28.4462 50.2756 27.2768C48.8984 26.1075 48.2099 24.5691 48.2725 22.5997H51.3396C51.277 23.6459 51.7151 24.5075 52.6539 25.1229C53.5929 25.7382 54.657 26.0459 55.9713 26.0459C57.2232 26.0459 58.2873 25.7998 59.2261 25.3076C60.165 24.8152 60.6032 24.0767 60.6032 23.1535C60.6032 22.1689 60.165 21.4304 59.3513 20.8766C58.5376 20.3226 57.4109 20.0765 56.0339 20.0765C53.6554 20.0765 51.7778 19.4611 50.338 18.1687C48.8984 16.8763 48.2099 15.1532 48.2099 12.9377C48.2099 10.6606 48.961 8.93749 50.5259 7.64512C52.0907 6.35276 53.9059 5.73732 56.0966 5.73732C57.7238 5.73732 59.0384 6.04504 60.0398 6.72199L61.6046 4.81421ZM52.6539 9.676C51.7151 10.4145 51.277 11.5222 51.277 12.9377C51.277 14.2916 51.7151 15.3993 52.6539 16.1379C53.5929 16.9379 54.7196 17.3071 56.0966 17.3071C57.4735 17.3071 58.6002 16.8763 59.4766 16.0763C60.3527 15.2763 60.7909 14.2301 60.7909 12.9377C60.7909 11.5838 60.3527 10.5376 59.4139 9.73753C58.4749 8.93749 57.4109 8.56824 56.0966 8.56824C54.7196 8.56824 53.5929 8.93749 52.6539 9.676Z" fill="#5B8A8D"/>
<path d="M67.9889 14.4764C68.1141 15.5842 68.6149 16.4457 69.4911 17.0612C70.3675 17.7381 71.4315 18.0458 72.7458 18.0458C73.5596 18.0458 74.3107 17.9227 75.1244 17.615C75.9382 17.3073 76.564 16.9381 76.9396 16.5073L78.9424 18.4151C78.1913 19.2151 77.3151 19.769 76.1258 20.1998C74.9992 20.6306 73.8099 20.8152 72.6832 20.8152C70.3048 20.8152 68.4271 20.1382 66.9875 18.7843C65.5479 17.4304 64.8594 15.5842 64.8594 13.2456C64.8594 11.0916 65.5479 9.2454 66.9875 7.89148C68.4271 6.53758 70.2422 5.79907 72.4955 5.79907C74.9365 5.79907 76.8143 6.53756 78.1913 8.01457C79.5685 9.49157 80.0691 11.6455 79.8188 14.4764H67.9889ZM76.8769 11.9532C76.8143 10.8455 76.3761 9.98389 75.625 9.43001C74.8741 8.8146 73.8099 8.5069 72.6208 8.5069C71.4941 8.5069 70.4925 8.8146 69.679 9.43001C68.8652 10.0454 68.3644 10.907 68.1141 11.9532H76.8769Z" fill="#5B8A8D" stroke="#5B8A8D" stroke-width="0.7"/>
<path d="M56.0339 15.6454C57.5549 15.6454 58.7879 14.433 58.7879 12.9375C58.7879 11.4421 57.5549 10.2297 56.0339 10.2297C54.5129 10.2297 53.2798 11.4421 53.2798 12.9375C53.2798 14.433 54.5129 15.6454 56.0339 15.6454Z" fill="#5B8A8D"/>
<path d="M31.0598 22.9688V23.9537H32.1865V24.2613H31.0598V26.2921C31.0598 26.5384 31.1224 26.723 31.1851 26.8461C31.2475 26.9691 31.4354 27.0306 31.6857 27.0306C31.8109 27.0306 31.9986 26.9691 32.1865 26.9077L32.3117 27.1538C32.0612 27.2769 31.8735 27.3383 31.6857 27.3383C31.3727 27.3383 31.1224 27.2154 30.9345 27.0306C30.7469 26.8461 30.6842 26.5998 30.6842 26.2306V24.1998H29.9331V23.8921H30.6842V22.9075L31.0598 22.9688Z" fill="#5B8A8D"/>
<path d="M32.8123 26.9076C32.4994 26.6 32.3117 26.1691 32.3117 25.6767C32.3117 25.1845 32.4994 24.7537 32.8123 24.446C33.1252 24.1383 33.5634 23.9536 34.0642 23.9536C34.5648 23.9536 35.003 24.1383 35.316 24.446C35.6289 24.7537 35.7541 25.2461 35.6915 25.8615H32.6246C32.6871 26.2307 32.8123 26.5384 33.0626 26.7845C33.3131 27.0308 33.6261 27.0924 34.0016 27.0924C34.2519 27.0924 34.4398 27.0308 34.6901 26.9692C34.9404 26.9076 35.0657 26.7845 35.1909 26.6L35.4412 26.7845C35.2533 26.9692 35.0657 27.1537 34.8153 27.2769C34.5648 27.4 34.2519 27.4616 34.0016 27.4616C33.5634 27.4 33.1879 27.2153 32.8123 26.9076ZM35.4412 25.5538C35.4412 25.1229 35.316 24.8153 35.0657 24.6305C34.8153 24.3844 34.5024 24.2613 34.0642 24.2613C33.6887 24.2613 33.3758 24.3844 33.1252 24.6305C32.8749 24.8768 32.6873 25.1845 32.6873 25.5538H35.4412Z" fill="#5B8A8D"/>
<path d="M37.2564 25.3688L38.2578 24.0149H38.6333L37.4443 25.6149L38.7586 27.3382H38.383L37.2564 25.8612L36.1297 27.3382H35.7542L37.0687 25.6149L35.8794 24.0149H36.255L37.2564 25.3688Z" fill="#5B8A8D"/>
<path d="M39.8226 22.9688V23.9537H40.9493V24.2613H39.8226V26.2921C39.8226 26.5384 39.8852 26.723 39.9479 26.8461C40.0105 26.9691 40.1982 27.0306 40.4485 27.0306C40.5737 27.0306 40.7616 26.9691 40.9493 26.9077L41.0745 27.1538C40.824 27.2769 40.6364 27.3383 40.4485 27.3383C40.1355 27.3383 39.8852 27.2154 39.6974 27.0306C39.5723 26.8461 39.4471 26.5998 39.4471 26.2306V24.1998H38.696V23.8921H39.4471V22.9075L39.8226 22.9688Z" fill="#5B8A8D"/>
<path d="M41.3248 22.7227C41.3875 22.6611 41.4501 22.6611 41.5127 22.6611C41.5751 22.6611 41.6378 22.6611 41.7004 22.7227C41.763 22.7843 41.763 22.8459 41.763 22.9074C41.763 22.969 41.763 23.0304 41.7004 23.092C41.6378 23.1535 41.5751 23.1535 41.5127 23.1535C41.4501 23.1535 41.3875 23.1535 41.3248 23.092C41.2622 23.0304 41.2622 22.969 41.2622 22.9074C41.2622 22.8459 41.2622 22.7843 41.3248 22.7227ZM41.3248 23.9536V27.3383H41.6378V23.9536H41.3248Z" fill="#5B8A8D"/>
<path d="M42.8271 22.5996V27.3383H42.5142V22.5996H42.8271Z" fill="#5B8A8D"/>
<path d="M43.8911 26.9076C43.5782 26.6 43.3903 26.1691 43.3903 25.6767C43.3903 25.1845 43.5782 24.7537 43.8911 24.446C44.2041 24.1383 44.6422 23.9536 45.143 23.9536C45.6437 23.9536 46.0818 24.1383 46.3948 24.446C46.7077 24.7537 46.8329 25.2461 46.7703 25.8615H43.7035C43.7659 26.2307 43.8911 26.5384 44.1414 26.7845C44.3919 27.0308 44.7049 27.0924 45.0804 27.0924C45.3307 27.0924 45.5186 27.0308 45.7689 26.9692C46.0192 26.9076 46.1445 26.7845 46.2697 26.6L46.52 26.7845C46.3321 26.9692 46.1445 27.1537 45.8942 27.2769C45.6437 27.4 45.3307 27.4616 45.0804 27.4616C44.6422 27.4 44.2667 27.2153 43.8911 26.9076ZM46.52 25.5538C46.52 25.1229 46.3948 24.8153 46.1445 24.6305C45.8942 24.3844 45.581 24.2613 45.143 24.2613C44.7675 24.2613 44.4544 24.3844 44.2041 24.6305C43.9538 24.8768 43.7659 25.1845 43.7659 25.5538H46.52Z" fill="#5B8A8D"/>
</g>
<defs>
<clipPath id="clip0_45_124">
<rect width="80" height="29" fill="white"/>
</clipPath>
</defs>
</svg>
