<svg width="20" height="20" viewBox="0 0 20 20" fill="none" xmlns="http://www.w3.org/2000/svg">
<path d="M9.41298 15.2534C9.5729 15.3868 9.78534 15.4545 9.99778 15.4545C10.2102 15.4545 10.4203 15.3868 10.5826 15.2534L14.3038 12.1487C14.626 11.8799 14.626 11.4438 14.3038 11.1749C14.1486 11.0455 13.941 10.9738 13.7214 10.9738C13.5018 10.9738 13.2941 11.0455 13.139 11.1749L10.826 13.1046V1.59809C10.826 1.21773 10.4561 0.909058 10.0002 0.909058C9.54426 0.909058 9.17429 1.21773 9.17429 1.59809V13.1046L6.86136 11.1749C6.53912 10.9061 6.01638 10.9061 5.69653 11.1749C5.3743 11.4438 5.3743 11.8799 5.69415 12.1487L9.41298 15.2534Z" fill="#588586"/>
<path d="M19.2277 12.7293C18.8013 12.7293 18.4554 13.0379 18.4554 13.4182V17.3089C18.4554 17.5339 18.25 17.719 17.9955 17.719H2.00223C1.75 17.719 1.54241 17.5359 1.54241 17.3089V13.4162C1.54241 13.0359 1.19643 12.7273 0.770089 12.7273C0.34375 12.7273 0 13.0379 0 13.4162V17.8544C0 18.5374 0.622768 19.0909 1.38616 19.0909H18.6138C19.3795 19.0909 20 18.5354 20 17.8544V13.4162C20 13.0379 19.654 12.7293 19.2277 12.7293Z" fill="#588586"/>
</svg>
