<svg width="12" height="12" viewBox="0 0 12 12" fill="none" xmlns="http://www.w3.org/2000/svg">
<path fill-rule="evenodd" clip-rule="evenodd" d="M3.75 0H8.25C10.3208 0 12 1.67925 12 3.75V8.25C12 10.3208 10.3208 12 8.25 12H3.75C1.67925 12 0 10.3208 0 8.25V3.75C0 1.67925 1.67925 0 3.75 0ZM8.25 10.875C9.6975 10.875 10.875 9.6975 10.875 8.25V3.75C10.875 2.3025 9.6975 1.125 8.25 1.125H3.75C2.3025 1.125 1.125 2.3025 1.125 3.75V8.25C1.125 9.6975 2.3025 10.875 3.75 10.875H8.25Z" fill="#5B8A8D"/>
<path fill-rule="evenodd" clip-rule="evenodd" d="M3 6C3 4.34325 4.34325 3 6 3C7.65675 3 9 4.34325 9 6C9 7.65675 7.65675 9 6 9C4.34325 9 3 7.65675 3 6ZM4.125 6C4.125 7.0335 4.9665 7.875 6 7.875C7.0335 7.875 7.875 7.0335 7.875 6C7.875 4.96575 7.0335 4.125 6 4.125C4.9665 4.125 4.125 4.96575 4.125 6Z" fill="#5B8A8D"/>
<circle cx="9.22504" cy="2.77524" r="0.39975" fill="#5B8A8D"/>
</svg>
