<svg width="16" height="14" viewBox="0 0 16 14" fill="none" xmlns="http://www.w3.org/2000/svg">
<path d="M9.71426 0H7.99998C7.84841 0 7.70313 0.0568077 7.59598 0.157769L4.33485 3.23077H1.71428C0.768998 3.23077 0 3.9554 0 4.84615V9.15385C0 10.0446 0.768998 10.7692 1.71428 10.7692H4.33485L7.59598 13.8422C7.70313 13.9432 7.84841 14 7.99998 14H9.71426C10.0298 14 10.2857 13.7589 10.2857 13.4615V0.538462C10.2857 0.241096 10.0298 0 9.71426 0ZM9.14284 12.9231H8.23655L4.97542 9.85008C4.86827 9.74912 4.72299 9.69231 4.57142 9.69231H1.71428C1.39928 9.69231 1.14285 9.45067 1.14285 9.15385V4.84615C1.14285 4.54933 1.39928 4.30769 1.71428 4.30769H4.57142C4.72299 4.30769 4.86827 4.25088 4.97542 4.14992L8.23655 1.07692H9.14284V12.9231ZM15.8325 8.23469C16.0558 8.4451 16.0558 8.78581 15.8325 8.99608C15.721 9.10121 15.5747 9.15385 15.4285 9.15385C15.2824 9.15385 15.1361 9.10121 15.0245 8.99608L13.7143 7.76138L12.404 8.99608C12.2924 9.10121 12.1461 9.15385 12 9.15385C11.8538 9.15385 11.7075 9.10121 11.596 8.99608C11.3727 8.78567 11.3727 8.44496 11.596 8.23469L12.9063 7L11.596 5.76531C11.3727 5.5549 11.3727 5.21419 11.596 5.00392C11.8193 4.79365 12.1808 4.79352 12.404 5.00392L13.7143 6.23862L15.0245 5.00392C15.2478 4.79352 15.6094 4.79352 15.8325 5.00392C16.0557 5.21433 16.0558 5.55504 15.8325 5.76531L14.5223 7L15.8325 8.23469Z" fill="white"/>
</svg>
