<svg width="21" height="16" viewBox="0 0 21 16" fill="none" xmlns="http://www.w3.org/2000/svg">
<path fill-rule="evenodd" clip-rule="evenodd" d="M20.719 4.11787C20.5714 3.99072 20.3848 3.91895 20.1899 3.91895C20.0566 3.91895 19.9254 3.95176 19.8085 4.01533L17.2327 5.38936V1.54619C17.2327 0.740234 16.5785 0.0839844 15.7767 0.0839844H1.45605C0.654199 0.0839844 0 0.740234 0 1.54619V14.4538C0 15.2598 0.654199 15.916 1.45605 15.916H15.7787C16.5806 15.916 17.2348 15.2598 17.2348 14.4538V10.301L19.7552 11.9088C19.8864 11.9929 20.0361 12.0359 20.1899 12.0359C20.3745 12.0359 20.557 11.9703 20.7026 11.8534C20.8913 11.6976 21 11.4638 21 11.2115V4.74746C21 4.50137 20.8975 4.27168 20.719 4.11787ZM19.3799 6.08871V9.74116L17.2635 8.39174V7.21664L19.3799 6.08871ZM15.6146 13.8037V2.19214C15.6146 1.92554 15.3993 1.70816 15.1327 1.70816H2.10205C1.83545 1.70816 1.62012 1.92554 1.62012 2.19214V13.8037C1.62012 14.0703 1.83545 14.2877 2.10205 14.2877H15.1327C15.3993 14.2877 15.6146 14.0703 15.6146 13.8037Z" fill="white"/>
</svg>
