<svg width="80" height="30" viewBox="0 0 80 30" fill="none" xmlns="http://www.w3.org/2000/svg">
<g clip-path="url(#clip0_2_176)">
<path d="M0.202026 21.2146V0.205566H3.45679V21.2146H0.202026Z" fill="white" stroke="white" stroke-width="0.7"/>
<path d="M16.4759 21.2142V13.0654C16.4759 11.9194 16.1629 10.9645 15.537 10.2005C14.9111 9.43654 14.0974 9.05457 13.0333 9.05457C11.9693 9.05457 11.1556 9.43654 10.4671 10.2005C9.84117 10.9645 9.46561 11.9194 9.46561 13.0654V21.2142H6.39862V6.38069H9.21525L9.40302 8.35426C9.77856 7.59031 10.3419 7.01733 11.093 6.699C11.8441 6.31703 12.5952 6.1897 13.4715 6.1897C15.7874 6.1897 17.2896 7.20832 18.0407 9.18189C19.1047 7.20832 20.7947 6.25335 23.0481 6.25335C25.0509 6.25335 26.5531 6.82633 27.6172 8.03595C28.6812 9.24555 29.182 10.9008 29.182 13.0654V21.278H26.1149V13.0654C26.1149 11.9194 25.8646 10.9645 25.3014 10.2005C24.738 9.43654 23.9242 9.11823 22.9228 9.11823C21.8588 9.11823 20.9824 9.5002 20.3566 10.2642C19.7307 11.0281 19.3551 11.9831 19.3551 13.129V21.278H16.4759V21.2142Z" fill="white" stroke="white" stroke-width="0.7"/>
<path d="M43.5155 6.38105H46.4574V21.1511H43.5782L43.4529 18.7318C43.0147 19.6231 42.3262 20.3234 41.3248 20.8326C40.3234 21.342 39.3844 21.5329 38.4456 21.5329C36.2549 21.5329 34.5024 20.8963 33.0626 19.4958C31.6856 18.0952 30.9972 16.1853 30.9972 13.766C30.9972 11.3468 31.6856 9.50058 33.1252 8.09999C34.5648 6.69938 36.3176 6.06274 38.5083 6.06274C39.5723 6.06274 40.5111 6.31739 41.4501 6.76304C42.3262 7.27236 43.0147 7.909 43.5155 8.73663V6.38105ZM35.3159 10.2645C34.4398 11.1558 33.939 12.3654 33.939 13.8297C33.939 15.294 34.3772 16.5036 35.3159 17.3949C36.1923 18.2861 37.319 18.7318 38.6959 18.7318C39.5723 18.7318 40.3234 18.5408 41.0119 18.2225C41.7004 17.8405 42.2012 17.3949 42.5768 16.8219C42.9523 16.2489 43.2026 15.6123 43.3279 14.912C43.5155 14.2117 43.5155 13.5114 43.3279 12.8111C43.14 12.1108 42.8897 11.4741 42.5768 10.9012C42.2636 10.3282 41.7004 9.88257 41.0119 9.50058C40.3234 9.11859 39.5723 8.99128 38.6959 8.99128C37.319 8.9276 36.1923 9.37324 35.3159 10.2645Z" fill="white" stroke="white" stroke-width="0.7"/>
<path d="M61.6046 4.98022L63.7953 6.69914L62.0428 8.80005C63.2319 10.2006 63.7953 11.7286 63.7953 13.3838C63.7953 14.7208 63.4824 15.8667 62.7939 16.8853C62.1679 17.9039 61.1665 18.6042 59.9145 19.1135C62.4808 20.0048 63.7327 21.5965 63.7327 23.9519C63.7327 25.8618 62.9816 27.3261 61.4168 28.4085C59.8521 29.4908 58.0368 30 55.9713 30C53.5929 30 51.6525 29.4271 50.2756 28.2174C48.8984 27.0078 48.2099 25.4163 48.2725 23.379H51.3396C51.277 24.4613 51.7151 25.3526 52.6539 25.9892C53.5929 26.6258 54.657 26.9441 55.9713 26.9441C57.2232 26.9441 58.2873 26.6895 59.2261 26.1803C60.165 25.6709 60.6032 24.9069 60.6032 23.9519C60.6032 22.9333 60.165 22.1693 59.3513 21.5965C58.5376 21.0234 57.4109 20.7688 56.0339 20.7688C53.6554 20.7688 51.7778 20.1322 50.338 18.7952C48.8984 17.4583 48.2099 15.6757 48.2099 13.3838C48.2099 11.0283 48.961 9.24569 50.5259 7.90876C52.0907 6.57183 53.9059 5.93517 56.0966 5.93517C57.7238 5.93517 59.0384 6.2535 60.0398 6.95379L61.6046 4.98022ZM52.6539 10.0097C51.7151 10.7736 51.277 11.9196 51.277 13.3838C51.277 14.7844 51.7151 15.9304 52.6539 16.6943C53.5929 17.522 54.7196 17.9039 56.0966 17.9039C57.4735 17.9039 58.6002 17.4583 59.4766 16.6307C60.3527 15.803 60.7909 14.7208 60.7909 13.3838C60.7909 11.9832 60.3527 10.9009 59.4139 10.0733C58.4749 9.24569 57.4109 8.8637 56.0966 8.8637C54.7196 8.8637 53.5929 9.24569 52.6539 10.0097Z" fill="white"/>
<path d="M67.9889 14.9756C68.1141 16.1215 68.6149 17.0128 69.4911 17.6495C70.3675 18.3498 71.4315 18.6681 72.7458 18.6681C73.5596 18.6681 74.3107 18.5408 75.1244 18.2224C75.9382 17.9041 76.564 17.5221 76.9396 17.0765L78.9424 19.0501C78.1913 19.8777 77.3151 20.4507 76.1258 20.8963C74.9992 21.342 73.8099 21.5329 72.6832 21.5329C70.3048 21.5329 68.4271 20.8326 66.9875 19.432C65.5479 18.0314 64.8594 16.1215 64.8594 13.7023C64.8594 11.4741 65.5479 9.5642 66.9875 8.16359C68.4271 6.763 70.2422 5.99902 72.4955 5.99902C74.9365 5.99902 76.8143 6.76298 78.1913 8.29092C79.5685 9.81885 80.0691 12.0471 79.8188 14.9756H67.9889ZM76.8769 12.3654C76.8143 11.2194 76.3761 10.3281 75.625 9.75517C74.8741 9.11853 73.8099 8.80022 72.6208 8.80022C71.4941 8.80022 70.4925 9.11853 69.679 9.75517C68.8652 10.3918 68.3644 11.2831 68.1141 12.3654H76.8769Z" fill="white" stroke="white" stroke-width="0.7"/>
<path d="M56.0339 16.1849C57.5549 16.1849 58.7879 14.9308 58.7879 13.3837C58.7879 11.8366 57.5549 10.5825 56.0339 10.5825C54.5129 10.5825 53.2798 11.8366 53.2798 13.3837C53.2798 14.9308 54.5129 16.1849 56.0339 16.1849Z" fill="white"/>
<path d="M31.0598 23.7609V24.7796H32.1865V25.0979H31.0598V27.1988C31.0598 27.4536 31.1224 27.6444 31.1851 27.7718C31.2475 27.899 31.4354 27.9627 31.6857 27.9627C31.8109 27.9627 31.9986 27.899 32.1865 27.8355L32.3117 28.0901C32.0612 28.2175 31.8735 28.281 31.6857 28.281C31.3727 28.281 31.1224 28.1538 30.9345 27.9627C30.7469 27.7718 30.6842 27.517 30.6842 27.1351V25.0342H29.9331V24.7159H30.6842V23.6974L31.0598 23.7609Z" fill="white"/>
<path d="M32.8123 27.8354C32.4994 27.5171 32.3117 27.0715 32.3117 26.5621C32.3117 26.0529 32.4994 25.6072 32.8123 25.2889C33.1252 24.9706 33.5634 24.7795 34.0642 24.7795C34.5648 24.7795 35.003 24.9706 35.316 25.2889C35.6289 25.6072 35.7541 26.1166 35.6915 26.7532H32.6246C32.6871 27.1352 32.8123 27.4534 33.0626 27.708C33.3131 27.9628 33.6261 28.0265 34.0016 28.0265C34.2519 28.0265 34.4398 27.9628 34.6901 27.8991C34.9404 27.8354 35.0657 27.708 35.1909 27.5171L35.4412 27.708C35.2533 27.8991 35.0657 28.09 34.8153 28.2174C34.5648 28.3448 34.2519 28.4085 34.0016 28.4085C33.5634 28.3448 33.1879 28.1537 32.8123 27.8354ZM35.4412 26.4349C35.4412 25.9892 35.316 25.6709 35.0657 25.4798C34.8153 25.2252 34.5024 25.0978 34.0642 25.0978C33.6887 25.0978 33.3758 25.2252 33.1252 25.4798C32.8749 25.7346 32.6873 26.0529 32.6873 26.4349H35.4412Z" fill="white"/>
<path d="M37.2564 26.2436L38.2578 24.843H38.6333L37.4443 26.4982L38.7586 28.2809H38.383L37.2564 26.753L36.1297 28.2809H35.7542L37.0687 26.4982L35.8794 24.843H36.255L37.2564 26.2436Z" fill="white"/>
<path d="M39.8226 23.7609V24.7796H40.9493V25.0979H39.8226V27.1988C39.8226 27.4536 39.8852 27.6444 39.9479 27.7718C40.0105 27.899 40.1982 27.9627 40.4485 27.9627C40.5737 27.9627 40.7616 27.899 40.9493 27.8355L41.0745 28.0901C40.824 28.2175 40.6364 28.281 40.4485 28.281C40.1355 28.281 39.8852 28.1538 39.6974 27.9627C39.5723 27.7718 39.4471 27.517 39.4471 27.1351V25.0342H38.696V24.7159H39.4471V23.6974L39.8226 23.7609Z" fill="white"/>
<path d="M41.3248 23.5062C41.3875 23.4425 41.4501 23.4425 41.5127 23.4425C41.5751 23.4425 41.6378 23.4425 41.7004 23.5062C41.763 23.5699 41.763 23.6336 41.763 23.6973C41.763 23.761 41.763 23.8245 41.7004 23.8882C41.6378 23.9519 41.5751 23.9519 41.5127 23.9519C41.4501 23.9519 41.3875 23.9519 41.3248 23.8882C41.2622 23.8245 41.2622 23.761 41.2622 23.6973C41.2622 23.6336 41.2622 23.5699 41.3248 23.5062ZM41.3248 24.7796V28.2809H41.6378V24.7796H41.3248Z" fill="white"/>
<path d="M42.8271 23.3788V28.2809H42.5142V23.3788H42.8271Z" fill="white"/>
<path d="M43.8911 27.8354C43.5782 27.5171 43.3903 27.0715 43.3903 26.5621C43.3903 26.0529 43.5782 25.6072 43.8911 25.2889C44.2041 24.9706 44.6422 24.7795 45.143 24.7795C45.6437 24.7795 46.0818 24.9706 46.3948 25.2889C46.7077 25.6072 46.8329 26.1166 46.7703 26.7532H43.7035C43.7659 27.1352 43.8911 27.4534 44.1414 27.708C44.3919 27.9628 44.7049 28.0265 45.0804 28.0265C45.3307 28.0265 45.5186 27.9628 45.7689 27.8991C46.0192 27.8354 46.1445 27.708 46.2697 27.5171L46.52 27.708C46.3321 27.8991 46.1445 28.09 45.8942 28.2174C45.6437 28.3448 45.3307 28.4085 45.0804 28.4085C44.6422 28.3448 44.2667 28.1537 43.8911 27.8354ZM46.52 26.4349C46.52 25.9892 46.3948 25.6709 46.1445 25.4798C45.8942 25.2252 45.581 25.0978 45.143 25.0978C44.7675 25.0978 44.4544 25.2252 44.2041 25.4798C43.9538 25.7346 43.7659 26.0529 43.7659 26.4349H46.52Z" fill="white"/>
</g>
<defs>
<clipPath id="clip0_2_176">
<rect width="80" height="30" fill="white"/>
</clipPath>
</defs>
</svg>
