<svg width="17" height="17" viewBox="0 0 17 17" fill="none" xmlns="http://www.w3.org/2000/svg">
<path d="M5.28549 8.55338C5.96317 9.93886 7.08623 11.0568 8.47479 11.7282C8.57638 11.7763 8.68876 11.7972 8.80086 11.7887C8.91296 11.7802 9.02093 11.7427 9.11412 11.6798L11.1587 10.3165C11.2491 10.2562 11.3531 10.2194 11.4614 10.2094C11.5696 10.1995 11.6786 10.2167 11.7785 10.2595L15.6034 11.8988C15.7334 11.954 15.8418 12.0499 15.9125 12.1721C15.9832 12.2943 16.0122 12.4362 15.9953 12.5763C15.8744 13.5224 15.4128 14.3919 14.697 15.0221C13.9812 15.6523 13.0602 15.9999 12.1065 16C9.16085 16 6.33588 14.8299 4.25301 12.747C2.17014 10.6641 1 7.83915 1 4.89353C1.00005 3.93983 1.34772 3.01884 1.97793 2.30301C2.60813 1.58719 3.47764 1.12561 4.42365 1.00472C4.5638 0.987757 4.70566 1.0168 4.82787 1.08748C4.95008 1.15815 5.046 1.26663 5.1012 1.39657L6.7419 5.22486C6.78433 5.32388 6.80163 5.43186 6.79223 5.53918C6.78284 5.6465 6.74705 5.74984 6.68805 5.83998L5.32944 7.91589C5.2676 8.00927 5.23105 8.1171 5.22334 8.22883C5.21564 8.34057 5.23705 8.45239 5.28549 8.55338V8.55338Z" stroke="white" stroke-linecap="round" stroke-linejoin="round"/>
</svg>
