<svg width="101" height="62" viewBox="0 0 101 62" fill="none" xmlns="http://www.w3.org/2000/svg">
<path d="M37.7429 18.5868L33.9673 16.7334V23.3407C33.9673 23.9127 33.9959 24.4047 34.0531 24.8166C34.1218 25.2285 34.2133 25.7033 34.3277 26.241C34.465 26.916 34.5508 27.4252 34.5851 27.7684H31.2386C31.2729 27.4252 31.3587 26.916 31.496 26.241C31.6104 25.7033 31.6962 25.2285 31.7534 24.8166C31.8221 24.4047 31.8564 23.9127 31.8564 23.3407V16.6819L28.0808 18.5868V15.7723H37.7429V18.5868Z" fill="white"/>
<path d="M47.2931 23.3407C47.2931 23.9127 47.3217 24.4047 47.3789 24.8166C47.4475 25.2285 47.5391 25.7033 47.6535 26.241C47.7908 26.916 47.8766 27.4252 47.9109 27.7684H44.5643C44.5987 27.4023 44.6845 26.8989 44.8218 26.2582C44.9362 25.7662 45.022 25.3028 45.0792 24.8681C45.1364 24.4333 45.165 23.9242 45.165 23.3407V22.105H40.9947V23.3407C40.9947 23.9127 41.0233 24.4047 41.0805 24.8166C41.1491 25.2285 41.2407 25.7033 41.3551 26.241C41.4924 26.916 41.5782 27.4252 41.6125 27.7684H38.266C38.3003 27.4252 38.3861 26.916 38.5234 26.241C38.6378 25.7033 38.7236 25.2285 38.7808 24.8166C38.8495 24.4047 38.8838 23.9127 38.8838 23.3407V20.1829C38.8838 19.5994 38.8495 19.1017 38.7808 18.6898C38.7236 18.2779 38.6378 17.8031 38.5234 17.2654C38.3861 16.6247 38.3003 16.1212 38.266 15.7551H41.6125C41.5782 16.1212 41.4924 16.6247 41.3551 17.2654C41.2407 17.8031 41.1491 18.2779 41.0805 18.6898C41.0233 19.1017 40.9947 19.5994 40.9947 20.1829V21.6588H45.165V20.1829C45.165 19.5879 45.1364 19.0788 45.0792 18.6555C45.022 18.2322 44.9362 17.7688 44.8218 17.2654C44.6845 16.5789 44.5987 16.0755 44.5643 15.7551H47.9109C47.8766 16.1212 47.7908 16.6247 47.6535 17.2654C47.5391 17.8031 47.4475 18.2779 47.3789 18.6898C47.3217 19.1017 47.2931 19.5994 47.2931 20.1829V23.3407Z" fill="white"/>
<path d="M56.7086 16.7848C56.3654 16.7505 55.8677 16.6647 55.2155 16.5274C54.7121 16.413 54.2831 16.3272 53.9284 16.27C53.5737 16.2128 53.1504 16.1785 52.6584 16.167C52.1321 16.2013 51.7717 16.4016 51.5772 16.7677C51.3827 17.1224 51.2798 17.6944 51.2683 18.4839C51.2798 19.2047 51.3598 19.7481 51.5086 20.1142C51.6688 20.4689 51.9605 20.692 52.3838 20.7835C52.6241 20.7492 53.0818 20.6634 53.7568 20.5261C54.3517 20.3774 54.8666 20.2859 55.3013 20.2515V21.7961C54.8094 21.7503 54.3117 21.6645 53.8083 21.5387C53.076 21.4014 52.5841 21.3156 52.3324 21.2812C51.9205 21.3728 51.6402 21.6073 51.4914 21.9849C51.3427 22.351 51.2683 22.9059 51.2683 23.6496V24.9367C51.2683 25.7719 51.3598 26.3726 51.5429 26.7387C51.7374 27.1048 52.1035 27.305 52.6413 27.3394C53.1447 27.3279 53.5852 27.2936 53.9627 27.2364C54.3403 27.1792 54.7579 27.0991 55.2155 26.9961C55.8677 26.8588 56.3654 26.773 56.7086 26.7387V27.7684H48.5396C48.5739 27.4252 48.6597 26.916 48.797 26.241C48.9114 25.7033 48.9972 25.2285 49.0544 24.8166C49.1231 24.4047 49.1574 23.9127 49.1574 23.3407V20.1829C49.1574 19.5994 49.1231 19.1017 49.0544 18.6898C48.9972 18.2779 48.9114 17.8031 48.797 17.2654C48.6597 16.6247 48.5739 16.1212 48.5396 15.7551H56.7086V16.7848Z" fill="white"/>
<path d="M34.2076 38.199C34.8712 38.5193 35.5119 38.9655 36.1297 39.5376C36.7475 40.0982 37.2509 40.7161 37.64 41.3911C38.029 42.0547 38.2235 42.6782 38.2235 43.2617H34.8769C34.8769 41.7286 34.7167 40.5216 34.3964 39.6406C34.0875 38.7482 33.5211 38.2676 32.6973 38.199C32.2626 38.2333 31.9422 38.3763 31.7363 38.628C31.5418 38.8797 31.4159 39.263 31.3587 39.7779C31.4159 40.4186 31.5246 41.0707 31.6848 41.7343C31.8221 42.4208 31.9079 42.9299 31.9422 43.2617H28.5957C28.63 42.9185 28.7158 42.4094 28.8531 41.7343C28.9675 41.1966 29.0533 40.7218 29.1105 40.3099C29.1792 39.898 29.2135 39.406 29.2135 38.834V35.6762C29.2135 35.0927 29.1792 34.595 29.1105 34.1831C29.0533 33.7712 28.9675 33.2964 28.8531 32.7587C28.7158 32.118 28.63 31.6146 28.5957 31.2484H34.2247C35.6892 31.2599 36.7361 31.5345 37.3654 32.0722C38.0061 32.61 38.3264 33.4909 38.3264 34.7151C38.3264 35.9508 38.0118 36.8375 37.3825 37.3752C36.7533 37.913 35.7064 38.1875 34.2419 38.199H34.2076ZM32.8861 31.6603C32.2797 31.6603 31.8679 31.8491 31.6505 32.2267C31.4331 32.5928 31.3244 33.2106 31.3244 34.0801V35.3673C31.3244 36.2368 31.4331 36.8546 31.6505 37.2208C31.8679 37.5869 32.2797 37.7699 32.8861 37.7699H34.1733C34.7911 37.7699 35.2316 37.5411 35.4947 37.0835C35.7579 36.6144 35.8894 35.8249 35.8894 34.7151C35.8894 33.6053 35.7579 32.8216 35.4947 32.364C35.2316 31.8949 34.7911 31.6603 34.1733 31.6603H32.8861Z" fill="white"/>
<path d="M47.0216 32.2782C46.6783 32.2438 46.1806 32.158 45.5285 32.0207C45.0251 31.9063 44.596 31.8205 44.2414 31.7633C43.8867 31.7061 43.4634 31.6718 42.9714 31.6603C42.4451 31.6947 42.0847 31.8949 41.8902 32.261C41.6957 32.6157 41.5927 33.1877 41.5813 33.9772C41.5927 34.698 41.6728 35.2414 41.8215 35.6076C41.9817 35.9622 42.2735 36.1853 42.6968 36.2769C42.9371 36.2425 43.3947 36.1567 44.0697 36.0194C44.6647 35.8707 45.1795 35.7792 45.6143 35.7448V37.2894C45.1223 37.2436 44.6246 37.1578 44.1212 37.032C43.389 36.8947 42.897 36.8089 42.6453 36.7746C42.2334 36.8661 41.9531 37.1006 41.8044 37.4782C41.6556 37.8443 41.5813 38.3992 41.5813 39.1429V40.43C41.5813 41.2652 41.6728 41.8659 41.8559 42.232C42.0504 42.5981 42.4165 42.7984 42.9542 42.8327C43.4576 42.8212 43.8981 42.7869 44.2757 42.7297C44.6532 42.6725 45.0708 42.5924 45.5285 42.4894C46.1806 42.3522 46.6783 42.2663 47.0216 42.232V43.2617H38.8525C38.8869 42.9185 38.9727 42.4094 39.11 41.7343C39.2244 41.1966 39.3102 40.7218 39.3674 40.3099C39.436 39.898 39.4704 39.406 39.4704 38.834V35.6762C39.4704 35.0927 39.436 34.595 39.3674 34.1831C39.3102 33.7712 39.2244 33.2964 39.11 32.7587C38.9727 32.118 38.8869 31.6146 38.8525 31.2484H47.0216V32.2782Z" fill="white"/>
<path d="M57.4994 34.7151C57.4994 35.9508 57.1848 36.8375 56.5555 37.3752C55.9262 37.913 54.8794 38.1875 53.4149 38.199H52.0591C51.5557 38.199 51.1896 38.3248 50.9607 38.5765C50.7319 38.8283 50.5889 39.2287 50.5317 39.7779C50.5889 40.4186 50.6976 41.0707 50.8578 41.7343C50.9951 42.4208 51.0809 42.9299 51.1152 43.2617H47.7686C47.803 42.9185 47.8888 42.4094 48.0261 41.7343C48.1405 41.1966 48.2263 40.7218 48.2835 40.3099C48.3521 39.898 48.3865 39.406 48.3865 38.834V35.6762C48.3865 35.0927 48.3521 34.595 48.2835 34.1831C48.2263 33.7712 48.1405 33.2964 48.0261 32.7587C47.8888 32.118 47.803 31.6146 47.7686 31.2484H53.3977C54.8622 31.2599 55.9091 31.5345 56.5383 32.0722C57.179 32.61 57.4994 33.4909 57.4994 34.7151ZM53.3462 37.7699C53.9641 37.7699 54.4046 37.5411 54.6677 37.0835C54.9309 36.6144 55.0624 35.8249 55.0624 34.7151C55.0624 33.6053 54.9309 32.8216 54.6677 32.364C54.4046 31.8949 53.9641 31.6603 53.3462 31.6603H52.0591C51.4527 31.6603 51.0408 31.8491 50.8235 32.2267C50.6061 32.5928 50.4974 33.2106 50.4974 34.0801V35.3673C50.4974 36.2368 50.6061 36.8546 50.8235 37.2208C51.0408 37.5869 51.4527 37.7699 52.0591 37.7699H53.3462Z" fill="white"/>
<path d="M67.7427 31.2484C67.7084 31.6146 67.6226 32.118 67.4853 32.7587C67.3709 33.2964 67.2794 33.7712 67.2107 34.1831C67.1535 34.595 67.1249 35.0927 67.1249 35.6762V39.9152C67.1135 41.0593 66.7359 41.9288 65.9922 42.5238C65.26 43.1073 64.1788 43.399 62.7486 43.399C61.3528 43.399 60.2945 43.1073 59.5737 42.5238C58.8643 41.9403 58.504 41.0765 58.4925 39.9323V35.6762C58.4925 35.0927 58.4582 34.595 58.3895 34.1831C58.3323 33.7712 58.2465 33.2964 58.1321 32.7587C57.9948 32.118 57.909 31.6146 57.8747 31.2484H61.2041C61.1698 31.5688 61.0839 32.0722 60.9467 32.7587C60.8322 33.2621 60.7464 33.7255 60.6892 34.1488C60.632 34.5721 60.6034 35.0813 60.6034 35.6762V39.8808C60.6034 40.8305 60.7808 41.5513 61.1354 42.0432C61.5015 42.5238 62.0393 42.764 62.7486 42.764C64.2474 42.764 64.9968 41.803 64.9968 39.8808V35.6762C64.9968 35.0813 64.9682 34.5721 64.911 34.1488C64.8538 33.7255 64.768 33.2621 64.6536 32.7587C64.5163 32.0722 64.4305 31.5688 64.3962 31.2484H67.7427Z" fill="white"/>
<path d="M78.164 39.7779C78.164 41.0021 77.8494 41.8831 77.2201 42.4208C76.6023 42.9585 75.5783 43.2388 74.1481 43.2617H68.4332C68.4676 42.9185 68.5534 42.4094 68.6907 41.7343C68.8051 41.1966 68.8909 40.7218 68.9481 40.3099C69.0167 39.898 69.0511 39.406 69.0511 38.834V35.6762C69.0511 35.0927 69.0167 34.595 68.9481 34.1831C68.8909 33.7712 68.8051 33.2964 68.6907 32.7587C68.5534 32.118 68.4676 31.6146 68.4332 31.2484H73.3072C74.7488 31.2599 75.7842 31.4773 76.4135 31.9006C77.0427 32.3239 77.3574 33.0218 77.3574 33.9943C77.3574 34.6465 77.2201 35.1728 76.9455 35.5732C76.6709 35.9737 76.2304 36.2654 75.624 36.4485C76.5165 36.6201 77.1629 36.9748 77.5633 37.5125C77.9638 38.0388 78.164 38.7939 78.164 39.7779ZM72.7237 31.6603C72.1287 31.6603 71.7226 31.8377 71.5052 32.1923C71.2878 32.547 71.1734 33.142 71.162 33.9772C71.1734 34.8238 71.2821 35.4245 71.488 35.7792C71.7054 36.1338 72.1173 36.3112 72.7237 36.3112H73.2214C73.8392 36.3112 74.274 36.1453 74.5257 35.8135C74.7888 35.4703 74.9204 34.8639 74.9204 33.9943C74.9204 33.1248 74.7888 32.5184 74.5257 32.1752C74.274 31.8319 73.8392 31.6603 73.2214 31.6603H72.7237ZM74.0108 42.8327C74.6287 42.8327 75.0691 42.6039 75.3323 42.1462C75.5954 41.6771 75.727 40.8877 75.727 39.7779C75.727 38.6681 75.5954 37.8844 75.3323 37.4267C75.0691 36.9576 74.6287 36.7231 74.0108 36.7231H72.7237C72.1173 36.7231 71.7054 36.9119 71.488 37.2894C71.2707 37.6555 71.162 38.2734 71.162 39.1429V40.43C71.162 41.2996 71.2649 41.9174 71.4709 42.2835C71.6883 42.6496 72.1001 42.8327 72.7065 42.8327H74.0108Z" fill="white"/>
<path d="M82.7918 42.8327C83.2952 42.8212 83.7357 42.7869 84.1132 42.7297C84.4908 42.6725 84.9084 42.5924 85.3661 42.4894C86.0182 42.3522 86.5159 42.2663 86.8591 42.232V43.2617H78.6901C78.7244 42.9185 78.8102 42.4094 78.9475 41.7343C79.0619 41.1966 79.1478 40.7218 79.205 40.3099C79.2736 39.898 79.3079 39.406 79.3079 38.834V35.6762C79.3079 35.0927 79.2736 34.595 79.205 34.1831C79.1478 33.7712 79.0619 33.2964 78.9475 32.7587C78.8102 32.118 78.7244 31.6146 78.6901 31.2484H82.0367C82.0023 31.6146 81.9165 32.118 81.7792 32.7587C81.6648 33.2964 81.5733 33.7712 81.5046 34.1831C81.4474 34.595 81.4188 35.0927 81.4188 35.6762V40.43C81.4188 41.2652 81.5104 41.8659 81.6934 42.232C81.8879 42.5981 82.254 42.7984 82.7918 42.8327Z" fill="white"/>
<path d="M90.1841 38.834C90.1841 39.406 90.2127 39.898 90.2699 40.3099C90.3386 40.7218 90.4301 41.1966 90.5445 41.7343C90.6818 42.4094 90.7676 42.9185 90.8019 43.2617H87.4554C87.4897 42.9185 87.5755 42.4094 87.7128 41.7343C87.8272 41.1966 87.913 40.7218 87.9702 40.3099C88.0389 39.898 88.0732 39.406 88.0732 38.834V35.6762C88.0732 35.0927 88.0389 34.595 87.9702 34.1831C87.913 33.7712 87.8272 33.2964 87.7128 32.7587C87.5755 32.118 87.4897 31.6146 87.4554 31.2484H90.8019C90.7676 31.6146 90.6818 32.118 90.5445 32.7587C90.4301 33.2964 90.3386 33.7712 90.2699 34.1831C90.2127 34.595 90.1841 35.0927 90.1841 35.6762V38.834Z" fill="white"/>
<path d="M101 39.2802C100.966 40.0582 100.777 40.7618 100.434 41.3911C100.102 42.0204 99.6214 42.5238 98.9921 42.9013C98.3743 43.2674 97.6249 43.4505 96.7439 43.4505C95.0506 43.4505 93.7235 42.9471 92.7624 41.9403C91.8013 40.922 91.3208 39.3774 91.3208 37.3066C91.3208 35.1556 91.7613 33.5939 92.6423 32.6214C93.5347 31.6489 94.9019 31.1626 96.7439 31.1626C97.8652 31.1626 98.7519 31.3629 99.404 31.7633C100.068 32.1523 100.588 32.7301 100.966 33.4966L99.9875 35.0927C99.7015 34.8753 99.467 34.6293 99.2839 34.3547C99.1123 34.0801 98.9292 33.7312 98.7347 33.3079C98.5402 32.9074 98.3686 32.5985 98.2199 32.3811C98.0826 32.1637 97.8938 31.9807 97.6535 31.8319C97.4133 31.6832 97.1101 31.6088 96.7439 31.6088C95.8401 31.6088 95.1365 32.0264 94.633 32.8617C94.1411 33.6854 93.8951 34.8982 93.8951 36.5C93.8951 38.2619 94.1983 39.6291 94.8047 40.6016C95.4225 41.5741 96.3092 42.0604 97.4647 42.0604C98.0139 42.0604 98.5002 41.9345 98.9235 41.6828C99.3583 41.4197 99.6958 41.0765 99.936 40.6531C100.188 40.2298 100.331 39.7722 100.365 39.2802H101Z" fill="white"/>
<path d="M33.401 58.9438C32.1882 58.9438 31.21 58.7379 30.4663 58.326C29.7341 57.9027 29.1963 57.2448 28.8531 56.3524C28.5099 55.46 28.3382 54.2758 28.3382 52.7999C28.3382 51.324 28.5099 50.1398 28.8531 49.2474C29.1963 48.355 29.7341 47.7028 30.4663 47.2909C31.21 46.8676 32.1882 46.656 33.401 46.656C34.6137 46.656 35.5863 46.8676 36.3185 47.2909C37.0507 47.7028 37.5885 48.355 37.9317 49.2474C38.2749 50.1398 38.4466 51.324 38.4466 52.7999C38.4466 54.2758 38.2749 55.46 37.9317 56.3524C37.5885 57.2448 37.0507 57.9027 36.3185 58.326C35.5863 58.7379 34.6137 58.9438 33.401 58.9438ZM33.401 58.5148C34.179 58.5148 34.7396 58.0743 35.0828 57.1933C35.4261 56.3009 35.5977 54.8364 35.5977 52.7999C35.5977 50.7748 35.4261 49.3218 35.0828 48.4408C34.7396 47.5484 34.179 47.1022 33.401 47.1022C32.8747 47.1022 32.4514 47.2967 32.131 47.6857C31.8106 48.0632 31.5761 48.6696 31.4274 49.5048C31.2786 50.34 31.2043 51.4384 31.2043 52.7999C31.2043 54.1728 31.2786 55.2769 31.4274 56.1121C31.5761 56.9359 31.8106 57.5423 32.131 57.9313C32.4514 58.3203 32.8747 58.5148 33.401 58.5148Z" fill="white"/>
<path d="M47.1389 47.7715C46.7957 47.7372 46.298 47.6513 45.6458 47.514C45.1424 47.3996 44.7133 47.3138 44.3587 47.2566C44.004 47.1994 43.5807 47.1651 43.0887 47.1536C42.551 47.188 42.1848 47.3939 41.9903 47.7715C41.7958 48.1376 41.6986 48.7268 41.6986 49.5391C41.6986 50.2828 41.773 50.8377 41.9217 51.2038C42.0819 51.57 42.3736 51.7988 42.7969 51.8903C43.1745 51.8446 43.6436 51.753 44.2042 51.6157C44.8907 51.4784 45.3998 51.3926 45.7316 51.3583V52.92C45.2969 52.8857 44.782 52.7942 44.1871 52.6454C43.512 52.5081 43.0544 52.4223 42.8141 52.388C42.4022 52.4681 42.1162 52.6798 41.956 53.023C41.7958 53.3662 41.71 53.8754 41.6986 54.5504C41.71 55.0767 41.7444 55.5458 41.8016 55.9577C41.8588 56.3581 41.9446 56.7872 42.059 57.2448C42.1963 57.9313 42.2821 58.4347 42.3164 58.755H38.9699C39.0042 58.4118 39.09 57.9027 39.2273 57.2276C39.3417 56.6899 39.4275 56.2151 39.4847 55.8032C39.5534 55.3913 39.5877 54.8994 39.5877 54.3273V51.1695C39.5877 50.586 39.5534 50.0883 39.4847 49.6764C39.4275 49.2646 39.3417 48.7897 39.2273 48.252C39.09 47.6113 39.0042 47.1079 38.9699 46.7418H47.1389V47.7715Z" fill="white"/>
<path d="M62.5136 49.5735L58.738 47.72V54.3273C58.738 54.8994 58.7666 55.3913 58.8238 55.8032C58.8925 56.2151 58.984 56.6899 59.0984 57.2276C59.2357 57.9027 59.3215 58.4118 59.3558 58.755H56.0093C56.0436 58.4118 56.1294 57.9027 56.2667 57.2276C56.3811 56.6899 56.4669 56.2151 56.5241 55.8032C56.5928 55.3913 56.6271 54.8994 56.6271 54.3273V47.6685L52.8515 49.5735V46.7589H62.5136V49.5735Z" fill="white"/>
<path d="M67.5068 58.9438C66.294 58.9438 65.3158 58.7379 64.5721 58.326C63.8398 57.9027 63.3021 57.2448 62.9589 56.3524C62.6156 55.46 62.444 54.2758 62.444 52.7999C62.444 51.324 62.6156 50.1398 62.9589 49.2474C63.3021 48.355 63.8398 47.7028 64.5721 47.2909C65.3158 46.8676 66.294 46.656 67.5068 46.656C68.7195 46.656 69.692 46.8676 70.4243 47.2909C71.1565 47.7028 71.6942 48.355 72.0375 49.2474C72.3807 50.1398 72.5523 51.324 72.5523 52.7999C72.5523 54.2758 72.3807 55.46 72.0375 56.3524C71.6942 57.2448 71.1565 57.9027 70.4243 58.326C69.692 58.7379 68.7195 58.9438 67.5068 58.9438ZM67.5068 58.5148C68.2848 58.5148 68.8454 58.0743 69.1886 57.1933C69.5319 56.3009 69.7035 54.8364 69.7035 52.7999C69.7035 50.7748 69.5319 49.3218 69.1886 48.4408C68.8454 47.5484 68.2848 47.1022 67.5068 47.1022C66.9805 47.1022 66.5571 47.2967 66.2368 47.6857C65.9164 48.0632 65.6819 48.6696 65.5331 49.5048C65.3844 50.34 65.31 51.4384 65.31 52.7999C65.31 54.1728 65.3844 55.2769 65.5331 56.1121C65.6819 56.9359 65.9164 57.5423 66.2368 57.9313C66.5571 58.3203 66.9805 58.5148 67.5068 58.5148Z" fill="white"/>
<path d="M81.1932 46.7418C81.1932 48.3207 80.9358 49.5735 80.4209 50.5002C79.906 51.4269 79.1452 52.0047 78.1384 52.2336V54.8422C78.1498 55.2998 78.1841 55.706 78.2414 56.0606C78.2986 56.4153 78.3786 56.81 78.4816 57.2448C78.6189 57.9313 78.7047 58.4404 78.739 58.7722H75.3925C75.4268 58.4519 75.5126 57.9484 75.6499 57.262C75.7643 56.77 75.8501 56.3066 75.9073 55.8719C75.9645 55.4371 75.9931 54.9222 75.9931 54.3273H76.0103V52.2507C74.992 52.0219 74.2198 51.4441 73.6935 50.5174C73.1672 49.5906 72.904 48.3321 72.904 46.7418H75.238C75.2037 48.4694 75.3353 49.7737 75.6328 50.6547C75.9417 51.5356 76.4108 51.9761 77.04 51.9761C77.6693 51.9761 78.1384 51.5356 78.4473 50.6547C78.7562 49.7737 78.8935 48.4694 78.8592 46.7418H81.1932Z" fill="white"/>
<path d="M86.7473 58.9438C85.4659 58.9438 84.3103 58.7436 83.2806 58.3432C82.2509 57.9427 81.5587 57.3649 81.204 56.6098L83.2806 54.722C83.3836 55.8661 83.7497 56.7872 84.379 57.4851C85.0082 58.1715 85.8034 58.5148 86.7645 58.5148C87.4738 58.5148 88.0688 58.3317 88.5493 57.9656C89.0298 57.5995 89.2701 57.1418 89.2701 56.5927C89.2701 56.2037 89.1271 55.8604 88.8411 55.5629C88.555 55.254 88.2004 54.9852 87.777 54.7563C87.3537 54.5275 86.7759 54.2529 86.0437 53.9326L85.4602 53.6751C84.2932 53.1488 83.3779 52.5997 82.7143 52.0276C82.0621 51.4441 81.7361 50.7004 81.7361 49.7966C81.7361 48.7669 82.1537 47.9831 82.9889 47.4454C83.8355 46.8962 84.9167 46.6216 86.2325 46.6216C87.3308 46.6216 88.3148 46.7246 89.1843 46.9305C90.0538 47.1365 90.6717 47.3653 91.0378 47.617L89.9394 49.8309C89.6076 49.5563 89.2415 49.1559 88.8411 48.6296C88.555 48.2634 88.309 47.9774 88.1031 47.7715C87.8972 47.5655 87.6397 47.3939 87.3308 47.2566C87.0219 47.1193 86.6558 47.0507 86.2325 47.0507C85.5002 47.0507 84.951 47.2109 84.5849 47.5312C84.2188 47.8516 84.0357 48.2577 84.0357 48.7497C84.0357 49.1959 84.1788 49.5906 84.4648 49.9339C84.7508 50.2771 85.1112 50.5746 85.546 50.8263C85.9922 51.0665 86.5814 51.3469 87.3137 51.6672C88.2747 52.0791 89.0356 52.4338 89.5962 52.7312C90.1568 53.0287 90.6373 53.4234 91.0378 53.9154C91.4382 54.3959 91.6384 54.9794 91.6384 55.6659C91.627 56.73 91.1808 57.5423 90.2998 58.1029C89.4188 58.6635 88.2347 58.9438 86.7473 58.9438Z" fill="white"/>
<path d="M58.3523 16.3663V28.2452C61.8953 24.8701 71.158 19.3191 79.8648 24.1159C88.5716 28.9127 97.3252 24.7381 100.423 24.1159C90.7484 24.1159 87.1444 22.4299 78.6555 16.3663C72.1771 11.7389 63.0621 12.3879 58.3523 16.3663Z" fill="#FF9900"/>
<g clip-path="url(#clip0_2_615)">
<path d="M19.7624 57.3091C19.7624 59.782 15.9546 61.7854 11.2559 61.7854C6.55843 61.7854 2.74951 59.782 2.74951 57.3091C2.74951 54.8374 6.55843 52.834 11.2559 52.834C15.9546 52.834 19.7624 54.8374 19.7624 57.3091Z" fill="#E8B87E"/>
<path d="M19.7624 32.2673H2.74951V57.4566H19.7624V32.2673Z" fill="#E8B87E"/>
<path d="M19.7624 32.2674C19.7624 34.7391 15.9546 36.7437 11.2559 36.7437C6.55843 36.7437 2.74951 34.7391 2.74951 32.2674C2.74951 29.7956 6.55843 27.7922 11.2559 27.7922C15.9546 27.7922 19.7624 29.7956 19.7624 32.2674Z" fill="#FFDAB6"/>
<path d="M21.0139 33.0718C21.0139 35.8293 16.7666 38.0645 11.5269 38.0645C6.28732 38.0645 2.03882 35.8293 2.03882 33.0718C2.03882 30.3155 6.28732 28.0803 11.5269 28.0803C16.7666 28.0803 21.0139 30.3155 21.0139 33.0718Z" fill="#D09750"/>
<path fill-rule="evenodd" clip-rule="evenodd" d="M6.80011 49.4373C6.77301 49.4373 6.74708 49.4315 6.72351 49.4174L5.24449 48.5908C5.19499 48.5639 5.16553 48.5123 5.16553 48.4573V47.7173C5.16553 47.6623 5.19381 47.6119 5.24331 47.5838C5.29163 47.5557 5.34937 47.5557 5.39769 47.5838L6.87671 48.4245C6.92503 48.4514 6.95449 48.503 6.95449 48.5568V49.2839C6.95449 49.339 6.92621 49.3893 6.87789 49.4163C6.85314 49.4303 6.82604 49.4373 6.80011 49.4373ZM5.32463 47.7103L5.31166 48.4573L5.31638 48.4643L6.7954 49.291L6.80836 48.5568L5.32463 47.7103Z" fill="#D09750"/>
<path fill-rule="evenodd" clip-rule="evenodd" d="M5.81256 58.3934C5.78664 58.3934 5.76071 58.3864 5.73596 58.3735L4.25694 57.5457C4.20862 57.5187 4.17798 57.4684 4.17798 57.4122V56.6734C4.17798 56.6172 4.20744 56.568 4.25576 56.5399C4.30408 56.5118 4.363 56.5118 4.41132 56.5399L5.89034 57.3794C5.93748 57.4075 5.96813 57.4578 5.96813 57.5129V58.24C5.96813 58.295 5.93866 58.3442 5.89034 58.3723C5.86677 58.3864 5.83967 58.3934 5.81256 58.3934ZM4.33826 56.6652L4.32529 57.4122L4.32883 57.4192L5.80785 58.247L5.82081 57.5129L4.33826 56.6652Z" fill="#D09750"/>
<path fill-rule="evenodd" clip-rule="evenodd" d="M6.18829 48.1809C6.16237 48.1809 6.13526 48.1739 6.11169 48.1598L4.63267 47.3332C4.58435 47.3062 4.55371 47.2547 4.55371 47.1997V46.4597C4.55371 46.4047 4.58317 46.3555 4.63149 46.3274C4.67981 46.2993 4.73756 46.2993 4.78705 46.3262L6.26607 47.1669C6.31321 47.1938 6.34385 47.2454 6.34385 47.3004V48.0263C6.34385 48.0814 6.31439 48.1317 6.26607 48.1586C6.24132 48.1739 6.2154 48.1809 6.18829 48.1809ZM4.70456 47.2067L6.18358 48.0345L6.19654 47.3004L4.71399 46.4527L4.70102 47.1997L4.6692 47.2699L4.70456 47.2067Z" fill="#D09750"/>
<path fill-rule="evenodd" clip-rule="evenodd" d="M5.54112 39.1404C5.51519 39.1404 5.48927 39.1334 5.46452 39.1205L3.9855 38.2927C3.93718 38.2658 3.90771 38.2143 3.90771 38.1592V37.4193C3.90771 37.3642 3.936 37.315 3.98432 37.2869C4.03264 37.2588 4.09156 37.2588 4.13988 37.2869L5.6189 38.1265C5.66722 38.1534 5.69668 38.2049 5.69668 38.2599V38.9859C5.69668 39.0421 5.6684 39.0913 5.62008 39.1194C5.59533 39.1334 5.56822 39.1404 5.54112 39.1404ZM4.05856 38.1663L5.53758 38.9941L5.55055 38.2599L4.06681 37.4122L4.05385 38.1592L4.02203 38.2295L4.05856 38.1663Z" fill="#D09750"/>
<path fill-rule="evenodd" clip-rule="evenodd" d="M16.7985 45.907C16.7502 45.8789 16.7207 45.8297 16.7207 45.7735V45.0475C16.7207 44.9925 16.7502 44.9422 16.7985 44.9141L18.2775 44.0745C18.3258 44.0464 18.3836 44.0464 18.4331 44.0745C18.4814 44.1015 18.5109 44.1518 18.5109 44.2068V44.9468C18.5109 45.0019 18.4802 45.0534 18.4319 45.0803L16.9529 45.9081C16.9281 45.921 16.9022 45.9281 16.8763 45.9281C16.8492 45.9281 16.8221 45.921 16.7985 45.907ZM16.868 45.0475L16.8798 45.7817L18.3588 44.9539L18.3635 44.9468L18.3506 44.1998L16.868 45.0475Z" fill="#D09750"/>
<path fill-rule="evenodd" clip-rule="evenodd" d="M17.4089 44.6495C17.3606 44.6214 17.3323 44.5722 17.3323 44.5172V43.79C17.3323 43.735 17.3617 43.6847 17.4101 43.6566L18.8891 42.817C18.9374 42.7889 18.9963 42.7901 19.0446 42.817C19.093 42.8451 19.1212 42.8943 19.1212 42.9505V43.6893C19.1212 43.7444 19.0918 43.7959 19.0423 43.8228L17.5633 44.6506C17.5397 44.6635 17.5138 44.6705 17.4867 44.6705C17.4607 44.6705 17.4336 44.6635 17.4089 44.6495ZM19.0069 43.7608L18.9751 43.6893L18.9621 42.9423L17.4784 43.79L17.4914 44.5242L18.9704 43.6975L19.0069 43.7608Z" fill="#D09750"/>
<path fill-rule="evenodd" clip-rule="evenodd" d="M16.4177 40.6496C16.3693 40.6227 16.3411 40.5723 16.3411 40.5173V39.7914C16.3411 39.7363 16.3705 39.6848 16.4188 39.6579L17.8979 38.8172C17.9462 38.7902 18.0051 38.7902 18.0522 38.8183C18.1017 38.8464 18.13 38.8956 18.13 38.9507V39.6907C18.13 39.7457 18.1006 39.7972 18.0511 39.8241L16.5721 40.6508C16.5485 40.6648 16.5226 40.6719 16.4954 40.6719C16.4695 40.6719 16.4424 40.6648 16.4177 40.6496ZM18.0157 39.7609L17.9839 39.6907L17.9709 38.9436L16.4872 39.7914L16.5002 40.5255L17.9792 39.6977L18.0157 39.7609Z" fill="#D09750"/>
<path fill-rule="evenodd" clip-rule="evenodd" d="M16.4177 56.3443C16.3693 56.3162 16.3411 56.2671 16.3411 56.212V55.4849C16.3411 55.4299 16.3705 55.3795 16.4188 55.3526L17.8979 54.5119C17.9462 54.485 18.0051 54.485 18.0522 54.5119C18.1017 54.54 18.13 54.5903 18.13 54.6454V55.3842C18.13 55.4392 18.1006 55.4908 18.0511 55.5177L16.5721 56.3455C16.5485 56.3584 16.5226 56.3654 16.4954 56.3654C16.4695 56.3654 16.4424 56.3584 16.4177 56.3443ZM18.0157 55.4556L17.9839 55.3842L17.9709 54.6372L16.4872 55.4849L16.5002 56.2191L17.9792 55.3924L18.0157 55.4556Z" fill="#D09750"/>
<path fill-rule="evenodd" clip-rule="evenodd" d="M12.5688 44.3555H10.4841C10.3627 44.3555 10.2637 44.2572 10.2637 44.1354V43.4633C10.2637 43.3415 10.3627 43.2432 10.4841 43.2432H12.5688C12.6902 43.2432 12.7892 43.3415 12.7892 43.4633V44.1354C12.7892 44.2572 12.6902 44.3555 12.5688 44.3555ZM10.4841 43.4188C10.4605 43.4188 10.4404 43.4387 10.4404 43.4633V44.1354C10.4404 44.16 10.4605 44.1799 10.4841 44.1799H12.5688C12.5936 44.1799 12.6124 44.16 12.6124 44.1354V43.4633C12.6124 43.4387 12.5936 43.4188 12.5688 43.4188H10.4841Z" fill="#D09750"/>
<path fill-rule="evenodd" clip-rule="evenodd" d="M11.8874 51.2158H9.80266C9.68127 51.2158 9.58228 51.1163 9.58228 50.9957V50.3224C9.58228 50.2018 9.68127 50.1023 9.80266 50.1023H11.8874C12.0088 50.1023 12.1078 50.2018 12.1078 50.3224V50.9957C12.1078 51.1163 12.0088 51.2158 11.8874 51.2158ZM9.80266 50.2779C9.77791 50.2779 9.75905 50.2978 9.75905 50.3224V50.9957C9.75905 51.0203 9.77791 51.0402 9.80266 51.0402H11.8874C11.9122 51.0402 11.931 51.0203 11.931 50.9957V50.3224C11.931 50.2978 11.9122 50.2779 11.8874 50.2779H9.80266Z" fill="#D09750"/>
<path fill-rule="evenodd" clip-rule="evenodd" d="M13.2571 59.3594H11.1735C11.0509 59.3594 10.9519 59.2611 10.9519 59.1393V58.4672C10.9519 58.3454 11.0509 58.2471 11.1735 58.2471H13.2571C13.3796 58.2471 13.4786 58.3454 13.4786 58.4672V59.1393C13.4786 59.2611 13.3796 59.3594 13.2571 59.3594ZM11.1735 58.4227C11.1487 58.4227 11.1287 58.4426 11.1287 58.4672V59.1393C11.1287 59.1639 11.1487 59.1838 11.1735 59.1838H13.2571C13.2818 59.1838 13.3018 59.1639 13.3018 59.1393V58.4672C13.3018 58.4426 13.2818 58.4227 13.2571 58.4227H11.1735Z" fill="#D09750"/>
<path fill-rule="evenodd" clip-rule="evenodd" d="M13.6552 43.419H11.5705C11.4491 43.419 11.3501 43.3206 11.3501 43.1989V42.5268C11.3501 42.405 11.4491 42.3066 11.5705 42.3066H13.6552C13.7766 42.3066 13.8756 42.405 13.8756 42.5268V43.1989C13.8756 43.3206 13.7766 43.419 13.6552 43.419ZM11.5705 42.4823C11.5457 42.4823 11.5269 42.5022 11.5269 42.5268V43.1989C11.5269 43.2234 11.5457 43.2434 11.5705 43.2434H13.6552C13.68 43.2434 13.6988 43.2234 13.6988 43.1989V42.5268C13.6988 42.5022 13.68 42.4823 13.6552 42.4823H11.5705Z" fill="#D09750"/>
<path fill-rule="evenodd" clip-rule="evenodd" d="M13.0803 50.2779H10.9967C10.8741 50.2779 10.7751 50.1795 10.7751 50.0589V49.3857C10.7751 49.2651 10.8741 49.1655 10.9967 49.1655H13.0803C13.2029 49.1655 13.3019 49.2651 13.3019 49.3857V50.0589C13.3019 50.1795 13.2029 50.2779 13.0803 50.2779ZM10.9967 49.3412C10.972 49.3412 10.9519 49.3611 10.9519 49.3857V50.0589C10.9519 50.0823 10.972 50.1022 10.9967 50.1022H13.0803C13.105 50.1022 13.1251 50.0823 13.1251 50.0589V49.3857C13.1251 49.3611 13.105 49.3412 13.0803 49.3412H10.9967Z" fill="#D09750"/>
<path d="M21.0139 31.127H2.03882V33.1737H21.0139V31.127Z" fill="#BC7F3C"/>
<path d="M21.0139 31.127C21.0139 33.8833 16.7666 36.1185 11.5269 36.1185C6.28732 36.1185 2.03882 33.8833 2.03882 31.127C2.03882 28.3696 6.28732 26.1355 11.5269 26.1355C16.7666 26.1355 21.0139 28.3696 21.0139 31.127Z" fill="#E8B87E"/>
<path d="M21.5833 31.0673C21.5833 34.0413 17.0024 36.4522 11.3503 36.4522C5.69823 36.4522 1.11621 34.0413 1.11621 31.0673C1.11621 28.0932 5.69823 25.6824 11.3503 25.6824C17.0024 25.6824 21.5833 28.0932 21.5833 31.0673Z" fill="#BC7F3C"/>
<path d="M21.5833 26.9246H1.11621V31.0672H21.5833V26.9246Z" fill="#BC7F3C"/>
<path d="M23.0117 26.6611C23.0117 29.9993 17.8699 32.7041 11.5272 32.7041C5.18331 32.7041 0.0415039 29.9993 0.0415039 26.6611C0.0415039 23.3241 5.18331 20.6182 11.5272 20.6182C17.8699 20.6182 23.0117 23.3241 23.0117 26.6611Z" fill="#A5692D"/>
<path d="M23.0117 24.9856H0.0415039V26.6611H23.0117V24.9856Z" fill="#A5692D"/>
<path d="M23.0117 24.9856C23.0117 28.3238 17.8699 31.0285 11.5272 31.0285C5.18331 31.0285 0.0415039 28.3238 0.0415039 24.9856C0.0415039 21.6485 5.18331 18.9426 11.5272 18.9426C17.8699 18.9426 23.0117 21.6485 23.0117 24.9856Z" fill="#E8B87E"/>
<path d="M5.4895 44.0371C5.4895 44.0395 5.4895 44.043 5.4895 44.0477L6.62911 44.6987C6.63147 44.2819 6.63265 43.8439 6.63265 43.3838L5.4895 44.0371Z" fill="#D09750"/>
<path d="M6.61031 41.6274C6.59264 41.4436 6.56317 41.241 6.51132 41.0502C6.42765 40.7411 6.28858 40.4589 6.05642 40.3289C5.74294 40.1545 5.60034 40.4753 5.53788 40.8429C5.51667 40.9635 5.5037 41.09 5.49663 41.2047C5.48249 41.4366 5.48956 43.9235 5.48956 44.0371L6.63271 43.3838C6.63271 42.6379 6.62799 41.8159 6.61031 41.6274Z" fill="#A5692D"/>
<path d="M5.4895 56.6675C5.4895 56.6687 5.4895 56.6722 5.4895 56.678L6.62911 57.3291C6.63147 56.9122 6.63265 56.4743 6.63265 56.0142L5.4895 56.6675Z" fill="#D09750"/>
<path d="M6.61031 54.2578C6.59264 54.074 6.56317 53.8714 6.51132 53.6794C6.42765 53.3703 6.28858 53.0893 6.05642 52.9593C5.74294 52.7848 5.60034 53.1057 5.53788 53.4733C5.51667 53.5939 5.5037 53.7204 5.49663 53.8351C5.48249 54.067 5.48956 56.5539 5.48956 56.6675L6.63271 56.0141C6.63271 55.2683 6.62799 54.4463 6.61031 54.2578Z" fill="#A5692D"/>
<path d="M17.2911 50.5533C17.2911 50.5557 17.2911 50.5592 17.2911 50.565L16.1527 51.216C16.1503 50.798 16.1492 50.3601 16.1492 49.9011L17.2911 50.5533Z" fill="#BC7F3C"/>
<path d="M16.1704 48.1447C16.1881 47.9597 16.2187 47.7583 16.2694 47.5663C16.3531 47.2572 16.4921 46.9762 16.7243 46.8462C17.0378 46.6706 17.1804 46.9926 17.244 47.3591C17.264 47.4808 17.277 47.6061 17.2841 47.722C17.2982 47.9527 17.2923 50.4408 17.2911 50.5532L16.1492 49.901C16.1492 49.154 16.1527 48.3332 16.1704 48.1447Z" fill="#93551C"/>
<path d="M3.06543 33.1702L4.42424 33.9465C4.45253 33.4184 4.40657 32.9278 4.284 32.4758L3.06543 33.1702Z" fill="#D09750"/>
<path d="M3.74179 31.6163C3.23975 31.3353 3.01466 31.854 3.06533 33.1701L4.2839 32.4757C4.18373 32.1069 4.01874 31.7709 3.74179 31.6163Z" fill="#93551C"/>
<path d="M19.1908 33.1702L17.832 33.9465C17.8038 33.4184 17.8497 32.9278 17.9723 32.4758L19.1908 33.1702Z" fill="#D09750"/>
<path d="M18.5143 31.6163C19.0163 31.3353 19.2414 31.854 19.1907 33.1701L17.9722 32.4757C18.0723 32.1069 18.2373 31.7709 18.5143 31.6163Z" fill="#93551C"/>
<path d="M9.98571 35.355H12.0481C12.107 34.1841 11.7629 33.5986 11.0169 33.5986C10.2709 33.5986 9.92678 34.1841 9.98571 35.355Z" fill="#D09750"/>
<path d="M1.11621 22.6357L5.83494 28.7899L11.5082 9.39526L1.11621 22.6357Z" fill="#FF9D45"/>
<path d="M21.9487 22.4717L17.1804 28.7899L11.5083 9.39526L21.9487 22.4717Z" fill="#DB6D00"/>
<path d="M11.508 9.39526L5.83472 28.7899H17.1802L11.508 9.39526Z" fill="#F27E00"/>
<path d="M2.03542 21.356C1.13033 22.254 0.532828 23.1322 0.242916 23.9905C-0.191951 25.2773 -0.158953 27.2924 2.79437 29.003C3.75603 29.5604 4.66348 29.969 5.51789 30.2289L6.35345 26.4399C4.75305 25.9716 3.5274 25.2117 2.67652 24.1602C2.08727 23.4319 1.76436 22.4367 2.03542 21.356Z" fill="#FF8C1A"/>
<path d="M21.0353 21.356C21.9038 22.254 22.4825 23.1322 22.7724 23.9905C23.2073 25.2773 23.1743 27.2924 20.2221 29.003C19.2605 29.5604 18.3518 29.969 17.4974 30.2289L16.6619 26.4399C18.2623 25.9716 19.4879 25.2117 20.3388 24.1602C20.928 23.4319 21.3063 22.4367 21.0353 21.356Z" fill="#C15C00"/>
<path d="M6.35338 26.4399L5.51782 30.2289C6.69632 30.8226 8.69389 31.1188 11.5117 31.1188C14.2564 31.1188 16.2516 30.8226 17.4973 30.2289L16.6617 26.4399C15.5693 26.9668 13.8522 27.2303 11.5129 27.2303C9.17236 27.2303 7.45292 26.9668 6.35338 26.4399Z" fill="#DB6D00"/>
<path d="M11.5354 2.71191H11.5342C11.4482 2.71191 11.3787 2.78217 11.3787 2.86764V9.5218C11.3787 9.60727 11.4482 9.67753 11.5342 9.67753H11.5354C11.6214 9.67753 11.6921 9.60727 11.6921 9.5218V2.86764C11.6921 2.78217 11.6214 2.71191 11.5354 2.71191Z" fill="#F27E00"/>
<path d="M11.5354 0.00830078H11.5342C11.4482 0.00830078 11.3787 0.078554 11.3787 0.164029V6.81818C11.3787 6.90366 11.4482 6.97391 11.5342 6.97391H11.5354C11.6214 6.97391 11.6921 6.90366 11.6921 6.81818V0.164029C11.6921 0.078554 11.6214 0.00830078 11.5354 0.00830078Z" fill="#F27E00"/>
<path d="M11.3786 7.97266L11.0168 10.0721H11.9997L11.6921 7.97266H11.3786Z" fill="#C15C00"/>
<path d="M11.6814 7.97278C11.6814 8.0161 11.6154 8.05006 11.5353 8.05006C11.454 8.05006 11.3892 8.0161 11.3892 7.97278C11.3892 7.93063 11.454 7.89551 11.5353 7.89551C11.6154 7.89551 11.6814 7.93063 11.6814 7.97278Z" fill="#F27E00"/>
<path d="M11.9997 10.085C11.9997 10.2267 11.7817 10.3414 11.5118 10.3414C11.2419 10.3414 11.0227 10.2267 11.0227 10.085C11.0227 9.94214 11.2419 9.82739 11.5118 9.82739C11.7817 9.82739 11.9997 9.94214 11.9997 10.085Z" fill="#C15C00"/>
<path d="M11.3787 0.452148V5.08301L15.6118 4.64275L11.3787 0.452148Z" fill="white"/>
</g>
<defs>
<clipPath id="clip0_2_615">
<rect width="23.0987" height="61.8229" fill="white"/>
</clipPath>
</defs>
</svg>
