<svg width="12" height="12" viewBox="0 0 12 12" fill="none" xmlns="http://www.w3.org/2000/svg">
<path d="M10.5005 8.30769C10.3169 8.30769 10.1406 8.21435 10.0527 8.05258C9.92925 7.82446 10.0292 7.54731 10.2764 7.43331C10.2997 7.42154 11 7.06073 11 6C11 4.93927 10.2998 4.57846 10.27 4.56358C10.0293 4.44392 9.934 4.16654 10.06 3.94292C10.186 3.71931 10.4794 3.62873 10.7236 3.741C10.7759 3.76512 12 4.34896 12 6C12 7.65104 10.7759 8.23488 10.7236 8.259C10.6519 8.29212 10.5756 8.30769 10.5005 8.30769ZM9 11.5385V0.461538C9 0.206654 8.77637 0 8.5 0H7C6.86713 0 6.74025 0.0486923 6.6465 0.135231L3.793 2.76923H1.5C0.672875 2.76923 0 3.39035 0 4.15385V7.84615C0 8.60965 0.672875 9.23077 1.5 9.23077H3.793L6.6465 11.8648C6.74025 11.9513 6.86725 12 7 12H8.5C8.77637 12 9 11.7933 9 11.5385ZM4.3535 8.44292C4.25975 8.35638 4.13287 8.30769 4 8.30769H1.5C1.22412 8.30769 1 8.10058 1 7.84615V4.15385C1 3.89942 1.22412 3.69231 1.5 3.69231H4C4.13287 3.69231 4.25975 3.64362 4.3535 3.55708L7.207 0.923077H8V11.0769H7.207L4.3535 8.44292Z" fill="white"/>
</svg>
