<svg width="13" height="11" viewBox="0 0 13 11" fill="none" xmlns="http://www.w3.org/2000/svg">
<path d="M7.89284 0H6.49999C6.37683 0 6.25879 0.0446346 6.17174 0.123962L3.52206 2.53846H1.39285C0.624811 2.53846 0 3.10782 0 3.80769V7.19231C0 7.89218 0.624811 8.46154 1.39285 8.46154H3.52206L6.17174 10.876C6.25879 10.9554 6.37683 11 6.49999 11H7.89284C8.14924 11 8.35712 10.8106 8.35712 10.5769V0.423077C8.35712 0.189433 8.14924 0 7.89284 0ZM7.42855 10.1538H6.6922L4.04253 7.73935C3.95547 7.66002 3.83743 7.61538 3.71428 7.61538H1.39285C1.13692 7.61538 0.928569 7.42553 0.928569 7.19231V3.80769C0.928569 3.57447 1.13692 3.38462 1.39285 3.38462H3.71428C3.83743 3.38462 3.95547 3.33998 4.04253 3.26065L6.6922 0.846154H7.42855V10.1538ZM12.8639 6.47012C13.0454 6.63543 13.0454 6.90313 12.8639 7.06835C12.7733 7.15095 12.6544 7.19231 12.5357 7.19231C12.4169 7.19231 12.2981 7.15095 12.2074 7.06835L11.1428 6.09823L10.0782 7.06835C9.98758 7.15095 9.86872 7.19231 9.74998 7.19231C9.63124 7.19231 9.51238 7.15095 9.42173 7.06835C9.24031 6.90303 9.24031 6.63533 9.42173 6.47012L10.4863 5.5L9.42173 4.52988C9.24031 4.36457 9.24031 4.09687 9.42173 3.93165C9.60315 3.76644 9.89692 3.76634 10.0782 3.93165L11.1428 4.90177L12.2074 3.93165C12.3889 3.76634 12.6826 3.76634 12.8639 3.93165C13.0452 4.09697 13.0454 4.36467 12.8639 4.52988L11.7993 5.5L12.8639 6.47012Z" fill="white"/>
</svg>
