<svg width="13" height="13" viewBox="0 0 13 13" fill="none" xmlns="http://www.w3.org/2000/svg">
<path d="M7.89286 12.0714H6.5C6.37662 12.0714 6.2588 12.0224 6.17175 11.9354L3.52207 9.28571H1.39286C0.624812 9.28571 0 8.6609 0 7.89286V4.17857C0 3.41053 0.624812 2.78571 1.39286 2.78571H3.52207L6.17175 0.136036C6.2588 0.0489821 6.37673 0 6.5 0H7.89286C8.14949 0 8.35714 0.207884 8.35714 0.464286V11.6071C8.35714 11.8635 8.14949 12.0714 7.89286 12.0714ZM6.69221 11.1429H7.42857V0.928571H6.69221L4.04254 3.57825C3.95548 3.6653 3.83767 3.71429 3.71429 3.71429H1.39286C1.13669 3.71429 0.928571 3.92263 0.928571 4.17857V7.89286C0.928571 8.14879 1.13669 8.35714 1.39286 8.35714H3.71429C3.83767 8.35714 3.95548 8.40612 4.04254 8.49318L6.69221 11.1429ZM9.95765 8.30816C10.0062 8.2839 11.1429 7.69658 11.1429 6.03571C11.1429 4.37485 10.0062 3.78753 9.95765 3.76327C9.73096 3.65033 9.45797 3.74145 9.34143 3.96639C9.22443 4.19134 9.31288 4.47037 9.53643 4.59074C9.56405 4.60571 10.2143 4.96867 10.2143 6.03571C10.2143 7.10276 9.56405 7.46571 9.54235 7.47755C9.31288 7.59223 9.22002 7.87115 9.3347 8.10051C9.41629 8.26324 9.57996 8.35714 9.75046 8.35714C9.82022 8.35714 9.89103 8.34147 9.95765 8.30816ZM10.8862 10.1653C10.9723 10.122 13 9.07354 13 6.03571C13 2.99789 10.9723 1.94942 10.8862 1.90612C10.6568 1.79237 10.382 1.8843 10.2664 2.11157C10.1508 2.33896 10.2414 2.61799 10.4681 2.73522C10.5335 2.76912 12.0714 3.59392 12.0714 6.03571C12.0714 8.47751 10.5335 9.30231 10.4709 9.3347C10.2414 9.44937 10.1486 9.72829 10.2633 9.95765C10.3449 10.1204 10.5085 10.2143 10.679 10.2143C10.7488 10.2143 10.8196 10.1986 10.8862 10.1653Z" fill="white"/>
</svg>
